<?xml version="1.0" encoding="utf-8"?>
<!-- Generator: Adobe Illustrator 15.0.0, SVG Export Plug-In . SVG Version: 6.00 Build 0)  -->
<!DOCTYPE svg PUBLIC "-//W3C//DTD SVG 1.1//EN" "http://www.w3.org/Graphics/SVG/1.1/DTD/svg11.dtd">
<svg version="1.1" id="Layer_1" xmlns="http://www.w3.org/2000/svg" xmlns:xlink="http://www.w3.org/1999/xlink" x="0px" y="0px"
	 width="48px" height="48px" viewBox="-149.5 45.5 48 48" enable-background="new -149.5 45.5 48 48" xml:space="preserve">
<g>
	<g>
		<line fill="none" x1="-120.208" y1="74.247" x2="-105.856" y2="88.6"/>
		
			<linearGradient id="SVGID_1_" gradientUnits="userSpaceOnUse" x1="617.792" y1="-820.5059" x2="635.3115" y2="-820.5059" gradientTransform="matrix(1 0 0 -1 -738 -737.5)">
			<stop  offset="0" style="stop-color:#DE8735"/>
			<stop  offset="1" style="stop-color:#C92C2C"/>
		</linearGradient>
		<path fill="url(#SVGID_1_)" d="M-120.208,74.247l16.371,12.333c1.271,0.956,1.526,2.766,0.568,4.037s-2.767,1.525-4.038,0.568
			c-0.217-0.164-0.412-0.362-0.568-0.568L-120.208,74.247z"/>
	</g>
	<g>
		<line fill="none" x1="-149.5" y1="56.293" x2="-133.645" y2="72.146"/>
		
			<linearGradient id="SVGID_2_" gradientUnits="userSpaceOnUse" x1="588.5" y1="-802.583" x2="606.0811" y2="-802.583" gradientTransform="matrix(1 0 0 -1 -738 -737.5)">
			<stop  offset="0" style="stop-color:#DE8735"/>
			<stop  offset="1" style="stop-color:#C92C2C"/>
		</linearGradient>
		<path fill="url(#SVGID_2_)" d="M-149.5,56.293l17.013,14.698c0.686,0.592,0.76,1.628,0.169,2.312
			c-0.592,0.688-1.629,0.764-2.314,0.17c-0.059-0.051-0.119-0.111-0.169-0.17L-149.5,56.293z"/>
	</g>
	<g>
		<line fill="none" x1="-140.222" y1="45.5" x2="-123.564" y2="62.158"/>
		
			<linearGradient id="SVGID_3_" gradientUnits="userSpaceOnUse" x1="597.7773" y1="-792.2725" x2="616.3232" y2="-792.2725" gradientTransform="matrix(1 0 0 -1 -738 -737.5)">
			<stop  offset="0" style="stop-color:#DE8735"/>
			<stop  offset="1" style="stop-color:#C92C2C"/>
		</linearGradient>
		<path fill="url(#SVGID_3_)" d="M-140.222,45.5l17.922,15.396c0.75,0.646,0.836,1.775,0.191,2.525
			c-0.645,0.749-1.775,0.836-2.526,0.189c-0.067-0.057-0.135-0.127-0.191-0.189L-140.222,45.5z"/>
	</g>
	<g>
		<line fill="none" x1="-130.712" y1="46.867" x2="-115.104" y2="62.475"/>
		
			<linearGradient id="SVGID_4_" gradientUnits="userSpaceOnUse" x1="607.2871" y1="-792.7954" x2="624.1455" y2="-792.7954" gradientTransform="matrix(1 0 0 -1 -738 -737.5)">
			<stop  offset="0" style="stop-color:#DE8735"/>
			<stop  offset="1" style="stop-color:#C92C2C"/>
		</linearGradient>
		<path fill="url(#SVGID_4_)" d="M-130.712,46.867l16.458,14.756c0.495,0.445,0.536,1.205,0.092,1.702
			c-0.444,0.493-1.205,0.534-1.7,0.092c-0.032-0.028-0.064-0.062-0.092-0.092L-130.712,46.867z"/>
	</g>
	<g>
		<line fill="none" x1="-111.336" y1="73.333" x2="-104.753" y2="79.915"/>
		
			<linearGradient id="SVGID_5_" gradientUnits="userSpaceOnUse" x1="626.6641" y1="-815.2217" x2="635.4424" y2="-815.2217" gradientTransform="matrix(1 0 0 -1 -738 -737.5)">
			<stop  offset="0" style="stop-color:#DE8735"/>
			<stop  offset="1" style="stop-color:#C92C2C"/>
		</linearGradient>
		<path fill="url(#SVGID_5_)" d="M-111.336,73.333l7.918,5.249c0.885,0.587,1.127,1.781,0.54,2.667
			c-0.587,0.888-1.782,1.128-2.668,0.539c-0.219-0.144-0.401-0.335-0.54-0.539L-111.336,73.333z"/>
	</g>
	<g>
		<line fill="none" x1="-118.714" y1="52.256" x2="-107.086" y2="63.885"/>
		
			<linearGradient id="SVGID_6_" gradientUnits="userSpaceOnUse" x1="619.2852" y1="-796.0249" x2="631.8252" y2="-796.0249" gradientTransform="matrix(1 0 0 -1 -738 -737.5)">
			<stop  offset="0" style="stop-color:#DE8735"/>
			<stop  offset="1" style="stop-color:#C92C2C"/>
		</linearGradient>
		<path fill="url(#SVGID_6_)" d="M-118.714,52.256l12.247,11.01c0.361,0.323,0.391,0.879,0.066,1.237
			c-0.323,0.36-0.879,0.39-1.238,0.067c-0.023-0.021-0.046-0.043-0.066-0.067L-118.714,52.256z"/>
	</g>
	<g>
		<line fill="none" x1="-147.978" y1="48.573" x2="-131.274" y2="65.277"/>
		
			<linearGradient id="SVGID_7_" gradientUnits="userSpaceOnUse" x1="590.0215" y1="-795.5171" x2="608.9102" y2="-795.5171" gradientTransform="matrix(1 0 0 -1 -738 -737.5)">
			<stop  offset="0" style="stop-color:#DE8735"/>
			<stop  offset="1" style="stop-color:#C92C2C"/>
		</linearGradient>
		<path fill="url(#SVGID_7_)" d="M-147.978,48.573l18.155,15.254c0.87,0.731,0.982,2.028,0.251,2.899s-2.03,0.983-2.901,0.252
			c-0.089-0.076-0.179-0.166-0.251-0.252L-147.978,48.573z"/>
	</g>
	<g>
		<line fill="none" x1="-146.286" y1="67.462" x2="-123.774" y2="89.975"/>
		
			<linearGradient id="SVGID_8_" gradientUnits="userSpaceOnUse" x1="591.7139" y1="-817.0693" x2="615.9287" y2="-817.0693" gradientTransform="matrix(1 0 0 -1 -738 -737.5)">
			<stop  offset="0" style="stop-color:#DE8735"/>
			<stop  offset="1" style="stop-color:#C92C2C"/>
		</linearGradient>
		<path fill="url(#SVGID_8_)" d="M-146.286,67.462l23.673,21.353c0.672,0.605,0.727,1.647,0.12,2.318
			c-0.608,0.674-1.647,0.729-2.32,0.121c-0.042-0.038-0.081-0.08-0.12-0.121L-146.286,67.462z"/>
	</g>
	<g>
		<line fill="none" x1="-130.49" y1="74.506" x2="-114.345" y2="90.65"/>
		
			<linearGradient id="SVGID_9_" gradientUnits="userSpaceOnUse" x1="607.5098" y1="-821.0972" x2="625.6924" y2="-821.0972" gradientTransform="matrix(1 0 0 -1 -738 -737.5)">
			<stop  offset="0" style="stop-color:#DE8735"/>
			<stop  offset="1" style="stop-color:#C92C2C"/>
		</linearGradient>
		<path fill="url(#SVGID_9_)" d="M-130.49,74.506l17.501,14.789c0.811,0.686,0.913,1.898,0.228,2.711
			c-0.686,0.812-1.899,0.914-2.711,0.229c-0.08-0.068-0.161-0.149-0.228-0.229L-130.49,74.506z"/>
	</g>
	<g>
		<line fill="none" x1="-142.301" y1="78.208" x2="-131.107" y2="89.402"/>
		
			<linearGradient id="SVGID_10_" gradientUnits="userSpaceOnUse" x1="595.6992" y1="-821.6143" x2="607.5088" y2="-821.6143" gradientTransform="matrix(1 0 0 -1 -738 -737.5)">
			<stop  offset="0" style="stop-color:#DE8735"/>
			<stop  offset="1" style="stop-color:#C92C2C"/>
		</linearGradient>
		<path fill="url(#SVGID_10_)" d="M-142.301,78.208l11.618,10.771c0.244,0.228,0.258,0.605,0.032,0.85
			c-0.226,0.242-0.605,0.258-0.849,0.031c-0.01-0.012-0.022-0.021-0.031-0.031L-142.301,78.208z"/>
	</g>
</g>
</svg>
