<?xml version="1.0" encoding="utf-8"?>
<!-- Generator: Adobe Illustrator 15.0.0, SVG Export Plug-In . SVG Version: 6.00 Build 0)  -->
<!DOCTYPE svg PUBLIC "-//W3C//DTD SVG 1.1//EN" "http://www.w3.org/Graphics/SVG/1.1/DTD/svg11.dtd">
<svg version="1.1" id="Layer_1" xmlns="http://www.w3.org/2000/svg" xmlns:xlink="http://www.w3.org/1999/xlink" x="0px" y="0px"
	 width="48px" height="48px" viewBox="-13.195 64.25 48 48" enable-background="new -13.195 64.25 48 48" xml:space="preserve">
<g>
	<g>
		<line fill="#FFFFFF" x1="16.097" y1="92.997" x2="30.449" y2="107.349"/>
		<path fill="#FFFFFF" d="M16.097,92.997l16.371,12.333c1.271,0.956,1.526,2.765,0.568,4.037c-0.958,1.271-2.766,1.526-4.038,0.569
			c-0.217-0.164-0.412-0.363-0.569-0.569L16.097,92.997z"/>
	</g>
	<g>
		<line fill="#FFFFFF" x1="-13.195" y1="75.043" x2="2.66" y2="90.896"/>
		<path fill="#FFFFFF" d="M-13.195,75.043L3.818,89.741c0.686,0.592,0.76,1.628,0.169,2.312c-0.592,0.687-1.629,0.764-2.314,0.17
			c-0.059-0.051-0.119-0.111-0.169-0.17L-13.195,75.043z"/>
	</g>
	<g>
		<line fill="#FFFFFF" x1="-3.917" y1="64.25" x2="12.741" y2="80.908"/>
		<path fill="#FFFFFF" d="M-3.917,64.25l17.922,15.396c0.75,0.646,0.836,1.776,0.191,2.526c-0.645,0.749-1.775,0.836-2.526,0.19
			c-0.067-0.057-0.135-0.127-0.191-0.19L-3.917,64.25z"/>
	</g>
	<g>
		<line fill="#FFFFFF" x1="5.593" y1="65.617" x2="21.201" y2="81.224"/>
		<path fill="#FFFFFF" d="M5.593,65.617l16.458,14.756c0.495,0.445,0.536,1.205,0.092,1.702c-0.444,0.494-1.205,0.535-1.7,0.092
			c-0.032-0.029-0.064-0.061-0.092-0.092L5.593,65.617z"/>
	</g>
	<g>
		<line fill="#FFFFFF" x1="24.969" y1="92.083" x2="31.552" y2="98.665"/>
		<path fill="#FFFFFF" d="M24.969,92.083l7.917,5.249c0.886,0.587,1.127,1.782,0.541,2.667c-0.587,0.887-1.782,1.128-2.668,0.539
			c-0.219-0.143-0.402-0.335-0.54-0.539L24.969,92.083z"/>
	</g>
	<g>
		<line fill="#FFFFFF" x1="17.591" y1="71.006" x2="29.219" y2="82.635"/>
		<path fill="#FFFFFF" d="M17.591,71.006l12.247,11.009c0.361,0.324,0.39,0.879,0.067,1.238c-0.324,0.36-0.879,0.389-1.239,0.068
			c-0.024-0.022-0.046-0.044-0.066-0.068L17.591,71.006z"/>
	</g>
	<g>
		<line fill="#FFFFFF" x1="-11.673" y1="67.323" x2="5.031" y2="84.027"/>
		<path fill="#FFFFFF" d="M-11.673,67.323L6.482,82.577c0.87,0.731,0.982,2.029,0.251,2.9c-0.731,0.87-2.03,0.983-2.901,0.251
			c-0.089-0.075-0.179-0.166-0.251-0.251L-11.673,67.323z"/>
	</g>
	<g>
		<line fill="#FFFFFF" x1="-9.981" y1="86.212" x2="12.531" y2="108.725"/>
		<path fill="#FFFFFF" d="M-9.981,86.212l23.673,21.353c0.672,0.605,0.727,1.647,0.12,2.318c-0.608,0.674-1.647,0.728-2.32,0.121
			c-0.042-0.038-0.081-0.08-0.12-0.121L-9.981,86.212z"/>
	</g>
	<g>
		<line fill="#FFFFFF" x1="5.815" y1="93.256" x2="21.96" y2="109.401"/>
		<path fill="#FFFFFF" d="M5.815,93.256l17.501,14.789c0.811,0.686,0.913,1.899,0.228,2.711c-0.686,0.812-1.899,0.914-2.711,0.228
			c-0.08-0.068-0.161-0.149-0.228-0.228L5.815,93.256z"/>
	</g>
	<g>
		<line fill="#FFFFFF" x1="-5.996" y1="96.958" x2="5.198" y2="108.153"/>
		<path fill="#FFFFFF" d="M-5.996,96.958l11.618,10.771c0.244,0.227,0.258,0.605,0.032,0.849c-0.226,0.242-0.605,0.258-0.849,0.032
			c-0.01-0.012-0.022-0.021-0.031-0.032L-5.996,96.958z"/>
	</g>
</g>
</svg>
