<?xml version="1.0" encoding="utf-8"?>
<!-- Generator: Adobe Illustrator 15.0.0, SVG Export Plug-In . SVG Version: 6.00 Build 0)  -->
<!DOCTYPE svg PUBLIC "-//W3C//DTD SVG 1.1//EN" "http://www.w3.org/Graphics/SVG/1.1/DTD/svg11.dtd">
<svg version="1.1" id="Layer_1" xmlns="http://www.w3.org/2000/svg" xmlns:xlink="http://www.w3.org/1999/xlink" x="0px" y="0px"
	 width="48px" height="48px" viewBox="0 0 48 48" enable-background="new 0 0 48 48" xml:space="preserve">
<g>
	<g>
		<line x1="3.337" y1="13.84" x2="18.45" y2="28.952"/>
		<path d="M3.337,13.84l16.216,14.01c0.653,0.563,0.725,1.552,0.161,2.204c-0.564,0.654-1.553,0.727-2.206,0.161
			c-0.056-0.048-0.113-0.105-0.161-0.161L3.337,13.84z"/>
	</g>
	<g>
		<line x1="10.085" y1="1.619" x2="25.963" y2="17.497"/>
		<path d="M10.085,1.619l17.082,14.674c0.716,0.614,0.798,1.692,0.183,2.408c-0.615,0.715-1.692,0.796-2.408,0.182
			c-0.063-0.055-0.128-0.121-0.183-0.182L10.085,1.619z"/>
	</g>
	<g>
		<line x1="19.15" y1="2.921" x2="34.026" y2="17.797"/>
		<path d="M19.15,2.921l15.686,14.066c0.472,0.424,0.512,1.149,0.089,1.621c-0.424,0.472-1.149,0.512-1.622,0.088
			c-0.03-0.028-0.06-0.058-0.088-0.088L19.15,2.921z"/>
	</g>
	<g>
		<line x1="35.784" y1="26.857" x2="42.059" y2="33.133"/>
		<path d="M35.784,26.857l7.546,5.004c0.845,0.56,1.074,1.698,0.515,2.542c-0.56,0.845-1.698,1.075-2.542,0.515
			c-0.209-0.137-0.384-0.319-0.515-0.515L35.784,26.857z"/>
	</g>
	<g>
		<line x1="29.939" y1="7.413" x2="41.023" y2="18.497"/>
		<path d="M29.939,7.413l11.674,10.494c0.344,0.309,0.372,0.837,0.063,1.181s-0.838,0.372-1.181,0.063
			c-0.022-0.02-0.044-0.041-0.063-0.063L29.939,7.413z"/>
	</g>
	<g>
		<line x1="3.337" y1="5.192" x2="19.259" y2="21.114"/>
		<path d="M3.337,5.192l17.304,14.54c0.83,0.697,0.937,1.935,0.24,2.765c-0.697,0.83-1.935,0.938-2.765,0.24
			c-0.085-0.071-0.17-0.158-0.24-0.24L3.337,5.192z"/>
	</g>
	<g>
		<line x1="7.01" y1="24.512" x2="25.448" y2="42.948"/>
		<path d="M7.01,24.512l19.387,17.487c0.552,0.496,0.596,1.349,0.098,1.899c-0.497,0.552-1.348,0.596-1.899,0.098
			c-0.034-0.031-0.067-0.064-0.098-0.098L7.01,24.512z"/>
	</g>
	<g>
		<line x1="20.708" y1="30.511" x2="33.846" y2="43.648"/>
		<path d="M20.708,30.511l14.241,12.035c0.659,0.558,0.743,1.546,0.185,2.206c-0.558,0.66-1.545,0.743-2.206,0.186
			c-0.065-0.056-0.13-0.122-0.185-0.186L20.708,30.511z"/>
	</g>
	<g>
		<line x1="10.429" y1="33.729" x2="18.99" y2="42.291"/>
		<path d="M10.429,33.729l8.886,8.237c0.186,0.174,0.197,0.463,0.024,0.648c-0.173,0.187-0.463,0.197-0.649,0.025
			c-0.009-0.009-0.017-0.017-0.025-0.025L10.429,33.729z"/>
	</g>
	<path d="M27.897,27.729l15.254,12.429c0.86,0.7,0.989,1.966,0.289,2.825c-0.7,0.86-1.965,0.989-2.825,0.288
		c-0.105-0.085-0.206-0.188-0.289-0.287L27.897,27.729z"/>
</g>
</svg>
