<?xml version="1.0" encoding="utf-8"?>
<!-- Generator: Adobe Illustrator 15.0.0, SVG Export Plug-In . SVG Version: 6.00 Build 0)  -->
<!DOCTYPE svg PUBLIC "-//W3C//DTD SVG 1.1//EN" "http://www.w3.org/Graphics/SVG/1.1/DTD/svg11.dtd">
<svg version="1.1" id="Layer_1" xmlns="http://www.w3.org/2000/svg" xmlns:xlink="http://www.w3.org/1999/xlink" x="0px" y="0px"
	 width="48px" height="48px" viewBox="-149.5 45.5 48 48" enable-background="new -149.5 45.5 48 48" xml:space="preserve">
<g>
	<g>
		<line fill="none" x1="-120.788" y1="73.671" x2="-109.169" y2="85.29"/>
		<path d="M-120.788,73.671l13.253,9.983c1.029,0.774,1.235,2.239,0.46,3.269c-0.776,1.029-2.24,1.235-3.269,0.46
			c-0.176-0.133-0.333-0.293-0.46-0.46L-120.788,73.671z"/>
	</g>
	<g>
		<line fill="none" x1="-144.5" y1="59.137" x2="-131.666" y2="71.971"/>
		<path d="M-144.5,59.137l13.772,11.898c0.556,0.479,0.615,1.317,0.137,1.871c-0.479,0.558-1.318,0.618-1.873,0.138
			c-0.048-0.041-0.097-0.09-0.137-0.138L-144.5,59.137z"/>
	</g>
	<g>
		<line fill="none" x1="-136.99" y1="50.399" x2="-123.505" y2="63.885"/>
		<path d="M-136.99,50.399l14.508,12.464c0.607,0.522,0.677,1.437,0.155,2.044c-0.522,0.605-1.437,0.677-2.045,0.152
			c-0.055-0.046-0.109-0.103-0.155-0.152L-136.99,50.399z"/>
	</g>
	<g>
		<line fill="none" x1="-129.291" y1="51.506" x2="-116.656" y2="64.141"/>
		<path d="M-129.291,51.506l13.323,11.945c0.401,0.36,0.434,0.976,0.074,1.378c-0.359,0.399-0.976,0.433-1.376,0.074
			c-0.026-0.022-0.052-0.05-0.075-0.074L-129.291,51.506z"/>
	</g>
	<g>
		<line fill="none" x1="-113.606" y1="72.931" x2="-108.277" y2="78.259"/>
		<path d="M-113.606,72.931l6.41,4.249c0.716,0.476,0.912,1.442,0.437,2.159c-0.475,0.719-1.443,0.913-2.16,0.437
			c-0.178-0.116-0.325-0.271-0.438-0.437L-113.606,72.931z"/>
	</g>
	<g>
		<line fill="none" x1="-119.578" y1="55.868" x2="-110.165" y2="65.282"/>
		<path d="M-119.578,55.868l9.914,8.913c0.292,0.262,0.316,0.711,0.053,1.002c-0.262,0.291-0.711,0.315-1.002,0.054
			c-0.019-0.017-0.037-0.034-0.053-0.054L-119.578,55.868z"/>
	</g>
	<g>
		<line fill="none" x1="-143.269" y1="52.888" x2="-129.746" y2="66.409"/>
		<path d="M-143.269,52.888l14.697,12.348c0.705,0.593,0.795,1.643,0.204,2.348s-1.644,0.795-2.349,0.204
			c-0.072-0.062-0.145-0.135-0.203-0.204L-143.269,52.888z"/>
	</g>
	<g>
		<line fill="none" x1="-141.899" y1="68.178" x2="-123.675" y2="86.402"/>
		<path d="M-141.899,68.178l19.164,17.286c0.544,0.49,0.589,1.333,0.097,1.876c-0.492,0.546-1.333,0.59-1.878,0.099
			c-0.034-0.031-0.066-0.065-0.097-0.099L-141.899,68.178z"/>
	</g>
	<g>
		<line fill="none" x1="-129.112" y1="73.881" x2="-116.042" y2="86.95"/>
		<path d="M-129.112,73.881l14.167,11.972c0.657,0.555,0.739,1.537,0.185,2.194c-0.555,0.658-1.537,0.74-2.194,0.186
			c-0.064-0.055-0.13-0.12-0.185-0.186L-129.112,73.881z"/>
	</g>
	<g>
		<line fill="none" x1="-138.672" y1="76.877" x2="-129.611" y2="85.939"/>
		<path d="M-138.672,76.877l9.405,8.72c0.197,0.185,0.209,0.49,0.026,0.688c-0.183,0.195-0.49,0.208-0.688,0.024
			c-0.008-0.01-0.018-0.017-0.025-0.024L-138.672,76.877z"/>
	</g>
</g>
</svg>
