<?xml version="1.0" encoding="utf-8"?>
<!-- Generator: Adobe Illustrator 15.0.0, SVG Export Plug-In . SVG Version: 6.00 Build 0)  -->
<!DOCTYPE svg PUBLIC "-//W3C//DTD SVG 1.1//EN" "http://www.w3.org/Graphics/SVG/1.1/DTD/svg11.dtd">
<svg version="1.1" id="Layer_1" xmlns="http://www.w3.org/2000/svg" xmlns:xlink="http://www.w3.org/1999/xlink" x="0px" y="0px"
	 width="48px" height="48px" viewBox="0 0 48 48" enable-background="new 0 0 48 48" xml:space="preserve">
<g>
	<path fill="#8DC738" d="M16.785,20.222c-0.048,0.153-0.114,0.305-0.203,0.453c-0.769,1.292-2.54,1.439-3.84,0.966
		c-1.095-0.4-1.958-1.298-2.393-2.364c-0.464-1.147-0.744-2.333-1.29-3.43c0.245,0.019,0.488,0.03,0.732,0.038
		c0.243,0.007,0.486,0.011,0.729,0.014c1.39,0.006,2.828-0.015,4.124,0.613C15.939,17.132,17.232,18.769,16.785,20.222z"/>
	<path fill="#A5D63C" d="M21.102,22.954c0.018,0.102,0.024,0.208,0.018,0.318c-0.058,0.966-1.025,1.575-1.908,1.688
		c-0.744,0.096-1.504-0.161-2.067-0.642c-0.604-0.519-1.115-1.113-1.751-1.579c0.145-0.062,0.287-0.127,0.429-0.195
		c0.142-0.067,0.281-0.137,0.421-0.208c0.797-0.408,1.612-0.845,2.538-0.87C19.704,21.438,20.928,21.99,21.102,22.954z"/>
	<path fill="#A5D63C" d="M22.272,19.165c-0.533,0.292-1.168,0.188-1.667-0.156c-0.655-0.464-1.049-1.152-1.084-1.909
		c-0.017-0.791,0.292-1.531,0.595-2.243c0.072-0.172,0.14-0.343,0.204-0.514c0.062-0.171,0.121-0.342,0.165-0.512
		c0.131,0.098,0.268,0.199,0.406,0.303s0.278,0.21,0.416,0.32c1.38,0.925,2.497,2.835,1.374,4.367
		C22.569,18.959,22.432,19.077,22.272,19.165z"/>
	<path fill="#A5D63C" d="M29.474,25.274c-0.1,0.026-0.205,0.043-0.316,0.046c-0.967,0.027-1.658-0.884-1.849-1.752
		c-0.06-0.275-0.071-0.557-0.038-0.833c0.076-1.111,1.006-1.816,1.521-2.746c0.069-0.12,0.122-0.224,0.173-0.344
		c0.378,0.808,1.016,1.428,1.479,2.185c0.104,0.172,0.139,0.361,0.223,0.554c0.04,0.146,0.068,0.295,0.086,0.448
		C30.859,23.75,30.417,25.016,29.474,25.274z"/>
	<path fill="#A5D63C" d="M13.322,23.25c0.046,0.093,0.081,0.194,0.104,0.303c0.199,0.947-0.574,1.79-1.394,2.132
		c-0.693,0.289-1.494,0.242-2.164-0.072c-0.721-0.34-1.37-0.777-2.107-1.059c0.123-0.098,0.244-0.199,0.362-0.301
		c0.118-0.104,0.235-0.207,0.351-0.313c0.661-0.604,1.331-1.242,2.217-1.51C11.575,22.159,12.9,22.368,13.322,23.25z"/>
	<path fill="#A5D63C" d="M13.075,14.124c-0.038,0.096-0.087,0.19-0.15,0.281c-0.558,0.791-1.701,0.798-2.512,0.43
		c-0.684-0.31-1.194-0.928-1.419-1.633c-0.241-0.759-0.363-1.534-0.659-2.264c0.156,0.024,0.312,0.043,0.467,0.06
		c0.156,0.017,0.312,0.031,0.468,0.044c0.893,0.073,1.816,0.13,2.616,0.596C12.685,12.099,13.434,13.213,13.075,14.124z"/>
	<path fill="#A5D63C" d="M23.914,8.19c-0.097,0.035-0.201,0.06-0.311,0.072c-0.961,0.107-1.725-0.743-1.987-1.594
		c-0.221-0.717-0.097-1.509,0.281-2.146c0.408-0.684,0.907-1.288,1.256-1.994c0.086,0.133,0.176,0.262,0.266,0.39
		c0.09,0.127,0.184,0.253,0.277,0.379c0.537,0.716,1.106,1.444,1.289,2.353C25.171,6.556,24.833,7.854,23.914,8.19z"/>
	<path fill="#A5D63C" d="M32.883,14.142c-0.1-0.031-0.198-0.074-0.292-0.131c-0.829-0.499-0.919-1.639-0.611-2.473
		c0.261-0.704,0.841-1.258,1.526-1.534c0.74-0.295,1.503-0.472,2.211-0.821c-0.013,0.158-0.021,0.314-0.026,0.471
		c-0.007,0.157-0.008,0.313-0.011,0.47c-0.009,0.895,0.003,1.82-0.406,2.652C34.872,13.606,33.816,14.434,32.883,14.142z"/>
	<path fill="#A5D63C" d="M34.575,22.767c-0.01-0.103-0.007-0.208,0.009-0.319c0.147-0.957,1.166-1.474,2.055-1.507
		c0.75-0.027,1.482,0.298,2,0.828c0.555,0.572,1.009,1.21,1.6,1.732c-0.149,0.048-0.297,0.1-0.444,0.155
		c-0.147,0.054-0.293,0.111-0.439,0.169c-0.83,0.333-1.681,0.695-2.604,0.634C35.828,24.404,34.66,23.742,34.575,22.767z"/>
	<path fill="#A5D63C" d="M29.099,30.916c0.062-0.083,0.135-0.162,0.22-0.232c0.745-0.617,1.851-0.325,2.535,0.241
		c0.58,0.479,0.91,1.209,0.943,1.949c0.035,0.795-0.052,1.573,0.043,2.356c-0.144-0.064-0.289-0.123-0.436-0.181
		c-0.145-0.058-0.293-0.111-0.439-0.165c-0.843-0.304-1.719-0.599-2.368-1.26C28.945,32.971,28.514,31.7,29.099,30.916z"/>
	<path fill="#A5D63C" d="M18.27,29.048c0.102-0.026,0.207-0.04,0.317-0.043c0.968-0.013,1.645,0.907,1.823,1.78
		c0.149,0.734-0.051,1.51-0.489,2.107c-0.473,0.641-1.029,1.193-1.446,1.862c-0.072-0.14-0.148-0.278-0.226-0.413
		c-0.077-0.137-0.158-0.271-0.239-0.404c-0.464-0.766-0.961-1.546-1.054-2.469C16.861,30.552,17.323,29.292,18.27,29.048z"/>
	<path fill="#8DC738" d="M21.41,12.786c-0.108,0.12-0.23,0.23-0.372,0.329c-1.234,0.858-2.909,0.26-3.896-0.708
		c-0.138-0.136-0.264-0.282-0.378-0.438c-0.088-0.125-0.168-0.255-0.241-0.39c-0.479-0.86-0.639-1.812-0.702-2.774
		c-0.017-0.241-0.027-0.482-0.034-0.722c0.005-0.163,0.002-0.325-0.007-0.485c-0.045-0.475-0.097-0.957-0.235-1.438
		c0.213,0.089,0.426,0.17,0.643,0.246c0.217,0.076,0.435,0.146,0.654,0.214c1.094,0.348,2.264,0.469,3.331,1.037
		c0.962,0.516,1.445,1.548,1.68,2.589c0.052,0.229,0.088,0.46,0.104,0.689C22.003,11.62,21.851,12.288,21.41,12.786z"/>
	<path fill="#8DC738" d="M27.493,13.714c-1.127-0.14-1.951-1.189-2.041-2.287c-0.029-0.24-0.038-0.483-0.027-0.722
		c0.013-0.24,0.045-0.475,0.096-0.7c0.032-0.142,0.071-0.281,0.12-0.418c0.049-0.136,0.104-0.27,0.166-0.4
		c0.285-0.55,0.629-1.049,1.161-1.393c0.999-0.637,1.996-1.066,2.988-1.603c0.126-0.069,0.25-0.141,0.37-0.218
		c0.122-0.077,0.242-0.157,0.358-0.243c0.033,0.499,0.103,0.998,0.175,1.495c0.028,0.175,0.058,0.351,0.088,0.526
		c0.058,0.351,0.116,0.703,0.149,1.058c0.034,0.207,0.052,0.413,0.031,0.616c0,0.153-0.006,0.305-0.017,0.458
		c-0.032,0.457-0.111,0.91-0.263,1.358c-0.074,0.227-0.178,0.458-0.306,0.683c-0.496,0.858-1.287,1.65-2.312,1.792
		C27.992,13.753,27.744,13.755,27.493,13.714z"/>
	<path fill="#8DC738" d="M31.287,19.98c-0.101-0.125-0.189-0.265-0.263-0.421c-0.637-1.362,0.232-2.911,1.354-3.721
		c0.63-0.455,1.387-0.702,2.154-0.745c0.192-0.011,0.384-0.009,0.575,0.006c0.575,0.062,1.115,0.222,1.659,0.395
		c0.182,0.058,0.363,0.117,0.546,0.173c0.562,0.176,1.146,0.313,1.749,0.399c-0.123,0.132-0.239,0.268-0.349,0.407
		c-0.247,0.305-0.466,0.616-0.676,0.937c-0.105,0.161-0.208,0.324-0.312,0.49c-0.831,1.676-2.449,3.104-4.409,2.951
		c-0.197-0.004-0.396-0.024-0.585-0.061C32.161,20.682,31.645,20.426,31.287,19.98z"/>
	<path fill="#8DC738" d="M30.515,27.367c-0.01-0.161,0-0.326,0.028-0.496c0.04-0.216,0.108-0.416,0.198-0.602
		c0.63-1.31,2.094-1.979,3.538-1.773c0.197,0.03,0.391,0.072,0.578,0.129c0.184,0.063,0.36,0.139,0.53,0.225
		c0.171,0.087,0.335,0.184,0.494,0.289c0.995,0.717,1.647,1.766,2.216,2.85c0.223,0.43,0.534,0.79,0.878,1.101
		c-0.619,0.086-1.222,0.223-1.8,0.406c-0.199,0.061-0.398,0.126-0.599,0.194c-0.222,0.071-0.445,0.137-0.671,0.195
		c-0.678,0.174-1.37,0.271-2.088,0.206C32.391,29.965,30.605,28.885,30.515,27.367z"/>
	<path fill="#8DC738" d="M16.669,26.432c0.097,0.128,0.18,0.271,0.247,0.43c0.592,1.383-0.332,2.9-1.479,3.672
		c-0.97,0.649-2.204,0.82-3.321,0.544c-0.2-0.051-0.397-0.104-0.594-0.163c-0.197-0.057-0.392-0.118-0.585-0.178
		c-0.706-0.237-1.428-0.442-2.167-0.495c0.809-0.791,1.22-1.823,1.893-2.786c0.085-0.12,0.171-0.224,0.279-0.327
		c0.132-0.144,0.271-0.278,0.416-0.407c0.145-0.129,0.295-0.252,0.453-0.367c0.19-0.139,0.39-0.264,0.602-0.378
		c1.175-0.603,2.724-0.636,3.859,0.067C16.42,26.15,16.556,26.279,16.669,26.432z"/>
	<path fill="#BD6B00" d="M26.844,28.209c-0.306,0.368-0.597,0.753-0.873,1.147c-0.019-0.402-0.04-0.804-0.062-1.206
		c-0.02-0.373-0.043-0.748-0.066-1.123h0.001c-0.003-0.027-0.004-0.057-0.007-0.086c-0.014-0.211-0.027-0.424-0.043-0.636
		c-0.083-1.869,0.211-3.789,0.892-5.584c0.768-2.024,2.061-3.903,3.861-5.249c-1.963,1.095-3.573,2.845-4.668,4.877
		c-0.188,0.348-0.361,0.704-0.521,1.066c-0.385-3.526-0.928-7.025-1.652-10.476c0.327,4.741,0.311,9.479,0.031,14.185
		c-0.454-0.97-0.995-1.892-1.603-2.752c-1.742-2.467-4.012-4.492-6.549-5.992c2.374,1.746,4.381,3.958,5.8,6.467
		c1.132,1.999,1.861,4.21,2.038,6.428c-0.043,0.467-0.088,0.935-0.135,1.401c-0.226-0.318-0.462-0.625-0.707-0.924
		c-2.008-2.442-4.707-4.23-7.61-4.969c4.699,2.3,7.539,7.221,7.634,11.812c-0.002,0.022-0.005,0.046-0.008,0.067
		c-0.336,2.862-0.667,5.747-0.899,8.675l4.77,0.051c-0.167-2.82-0.236-5.677-0.297-8.557c-0.008-0.435-0.02-0.872-0.028-1.311
		c0.169-2.206,0.83-4.434,1.945-6.46c1.234-2.246,3.039-4.256,5.332-5.661C30.906,24.352,28.625,26.051,26.844,28.209z"/>
</g>
</svg>
