<?xml version="1.0" encoding="utf-8"?>
<!-- Generator: Adobe Illustrator 15.0.0, SVG Export Plug-In . SVG Version: 6.00 Build 0)  -->
<!DOCTYPE svg PUBLIC "-//W3C//DTD SVG 1.1//EN" "http://www.w3.org/Graphics/SVG/1.1/DTD/svg11.dtd">
<svg version="1.1" id="Layer_1" xmlns="http://www.w3.org/2000/svg" xmlns:xlink="http://www.w3.org/1999/xlink" x="0px" y="0px"
	 width="360px" height="155.53px" viewBox="0 21.224 360 155.53" enable-background="new 0 21.224 360 155.53" xml:space="preserve"
	>
<g>
	<path d="M320.438,155.245c-0.004,0-0.01-0.001-0.013-0.002c-0.012-0.002-0.024-0.006-0.038-0.006L320.438,155.245z"/>
	<path d="M320.387,155.237l-0.786-0.135C319.86,155.147,320.124,155.192,320.387,155.237z"/>
	<path d="M359.808,108.806l-1.688,1.793c-0.059,0.053-2.293,2.168-5.992,4.918c3.731-5.183,4.898-12.266,4.955-12.623l0.487-2.745
		l-1.187,2.528c-1.812,3.833-4.891,6.971-7.033,8.85c4.959-6.933,9.607-17.222,9.769-31.542l-0.064-2.645l-0.655,2.527
		c-0.021,0.069-1.852,5.648-5.808,12.616c3.803-10.5,2.722-22.471,2.707-22.609l-0.396-2.611l-0.332,2.577
		c-1.271,6.762-4.033,13.853-5.838,18.041c1.66-7.429,2.571-16.711,1.742-28.038l-0.458-2.912l-0.276,2.908
		c-0.006,0.077-0.415,5.898-2.842,14.096c1.062-18.228-5.866-27.411-5.939-27.506l-1.393-1.604l0.744,1.928
		c0.028,0.104,2.525,9.249,1.682,19.977c-0.218-2.959-0.628-5.905-1.202-8.807c-1.348-6.821-3.855-13.404-7.462-19.36l0.992,4.054
		c0.015,0.063,0.431,2.015,0.754,5.365c-3.024-11.588-10.396-17.014-10.484-17.077l-1.833-1.123l1.316,1.632
		c2.644,3.792,4.094,9.151,4.841,12.934c-0.666-1.521-1.469-3.124-2.509-5.077c-1.751-3.291-6.253-7.979-9.165-10.381
		c-1.199-0.989-1.614-1.062-1.614-1.062c0.001,0.001,1.149,2.039,1.149,2.039c10.497,18.442,11.104,34.186,9.593,44.461
		c-1.636,11.139-5.813,18.008-5.855,18.076l-0.03,0.057c-5.237,13.152-27.174,14.155-27.403,14.165
		c-2.412,0.103-5.704,1.628-7.046,3.763c-1.545,2.457-1.905,5.899-0.049,9.524c1.379,2.692,1.426,3.829,0.998,6.138
		c-0.365,1.981-1.248,3.869-2.422,5.501c-2.746,3.822-7,6.742-10.584,7.263c-0.44,0.063-0.904,0.108-1.395,0.155
		c-2.061,0.195-4.508,0.662-5.488,1.851c-1.562,1.896-0.863,4.226,0.1,5.551c0.371,0.514,0.486,1.031,0.354,1.583
		c-0.416,1.747-3.135,3.165-3.163,3.179c-0.209,0.108-1.382,0.521-1.302,1.067c0.054,0.35,0.894,0.71,2.778,1.044
		c0.854,0.152,1.689,0.216,1.941,0.203c0.746-0.038,1.79-0.155,2.84-0.469c0.752,1.422,2.951,6.5-0.22,12.215l-0.86,1.293
		l1.383-0.803c0.026-0.018,1.027-0.604,2.318-1.779c-0.207,1.553-0.234,4.408,1.534,7.502l0.413,0.721l0.257-0.789
		c0.013-0.031,0.879-2.673,2.146-5.542c0.449,2.72,2.507,6.457,5.72,9.897l1.233,1.062l-0.621-1.448
		c-0.012-0.031-1.162-2.902-0.262-9.14c0.733,2.926,2.518,6.292,6.678,8.418l1.149,0.588l-0.666-1.104
		c-0.021-0.033-1.812-3.133-1.19-11.357c0.906,2.909,3.388,7.951,10.056,11.514l1.381,0.508l-0.912-1.057
		c-0.032-0.042-3.056-4.097-2.62-8.515c2.473,3.162,6.248,6.075,11.997,7.094l1.218,0.216l-0.9-0.847
		c-0.028-0.026-2.182-2.104-5.287-8.447c1.601,1.312,4.467,3.238,8.121,3.884c2.023,0.359,4.29,0.322,6.713-0.431l1.739-0.547
		l-1.794-0.169c-0.069-0.012-4.561-0.798-8.888-6.557c1.21,0.789,3.349,1.932,6.182,2.434c3.448,0.611,8.704,0.85,13.081-1.966
		l0.942-0.607l-1.118-0.069c-0.105-0.008-8.966-0.924-16.667-6.135c1.838,0.75,4.537,1.696,7.529,2.228
		c6.722,1.114,14.662,1.407,20.742-5.716l0.656-0.771l-0.998,0.167c-0.058,0.01-1.683,0.174-4.354,0.153
		c5.278-1.729,8.312-6.095,8.353-6.154l0.623-0.918l-1.048,0.362c-4.189,1.441-7.699,2.053-10.188,2.304
		c6.904-1.882,14.038-5.563,16.958-12.741l0.497-1.127l-1.033,0.668c-0.037,0.023-1.23,0.678-3.307,1.555
		c3.975-3.346,5.391-7.86,5.464-8.103l0.338-1.116l-0.919,0.719c-3.183,2.485-6.107,4.222-8.186,5.316
		c4.728-4.021,9.647-9.982,14.665-18.792L359.808,108.806z M355.812,105.247c-0.828,3.214-2.706,8.802-6.299,12.136
		c-4.095,2.815-9.377,5.923-15.232,8.101c2.518-1.528,6.91-4.553,11.249-9.254c0.642-0.695,1.297-1.449,1.956-2.26
		C348.245,113.431,352.751,110.128,355.812,105.247z M358.316,82.229c-0.667,14.624-6.115,24.754-11.34,31.195
		c-0.005,0.003-0.012,0.009-0.014,0.011l0.003,0.004c-0.658,0.812-1.313,1.566-1.956,2.265c-6.492,7.042-13.671,10.67-16.992,11.651
		c-2.673,0.6-5.414,0.945-8.173,0.938c-0.274-0.114-0.546-0.242-0.813-0.369c-1.658-0.782-3.213-1.747-4.769-2.71
		c18.015,1.489,29-14.581,29-14.581c-12.676,14.718-27.272,14.002-30.56,13.626c-1.019-0.613-2.048-1.203-3.125-1.718
		c2.14,0.256,4.936,0.212,7.443-1.034c0.366-0.183,0.712-0.395,1.047-0.617c7.672-1.334,14.1-4.77,19.357-8.961l0.019,0.02
		c0.009-0.008,0.063-0.064,0.156-0.162c5.109-4.109,9.106-8.93,12.052-13.215C354.248,91.888,357.057,85.45,358.316,82.229z
		 M303.832,135.074c-0.037-0.035-0.073-0.072-0.109-0.107c0.026-1.495-0.257-2.782-0.709-3.868c1.24,0.735,3.945,2.536,6.018,5.336
		c0,0-1.576-3.612-6.572-6.44c-0.984-1.681-2.311-2.753-3.117-3.294c2.357,0.591,4.582,1.639,6.217,3.557l0.553,0.646l0.094-0.844
		c0.063-0.348,0.107-0.684,0.131-1.011c0.834,0.416,2.389,1.709,2.603,1.9c1.252,1.11,2.467,2.739,3.002,4.352
		c0.565,1.704,1.241,3.368,1.55,4.107C309.523,140.235,304.677,135.871,303.832,135.074z M306.238,148.978
		c-3.102-4.972-6.838-6.843-7.936-7.314c0.26-1.365,0.272-2.585,0.122-3.659c0.837,0.585,5.103,3.672,6.81,6.832
		c0,0-1.838-4.917-7.018-7.897c-0.371-1.475-1.033-2.616-1.664-3.445c3.932,2.623,5.609,5.8,5.631,5.842l0.385,0.748l0.291-0.79
		c0.439-1.207,0.691-2.315,0.802-3.34C308.666,141.146,306.991,147.05,306.238,148.978z M301.75,151.079
		c0.16,1.423-0.033,4.178-0.123,5.305c-4.789-2.05-7.593-5.886-8.552-7.39c-0.091-0.188-0.197-0.364-0.31-0.532
		c1.131-4.311,0.246-7.796-0.841-9.943c2.827,3.375,3.214,6.229,3.228,6.282l0.586,2.789l0.873-1.239
		c0.014-0.027,0.024-0.055,0.039-0.082c0.317,0.557,1.188,2.246,2.85,6.56c0,0-0.577-4.317-2.361-7.569
		c0.45-0.998,0.772-1.938,0.995-2.82C301.748,145.065,301.747,150.989,301.75,151.079z M293.046,154.833
		c-0.063,0.703-0.144,1.212-0.164,1.354c-0.553,1.313-1.209,4.328-1.483,5.668c-2.739-2.668-4.412-5.612-5.108-6.992
		c0.671,0.156,1.097,0.184,1.114,0.187l0.854,0.104l-0.514-0.691c-0.304-0.406-0.513-0.877-0.704-1.345
		c-0.396-0.958-0.682-1.966-0.936-2.972c-0.276-1.105-0.336-2.15-0.36-3.291c-0.011-0.457-0.027-0.912-0.054-1.367
		c-0.016-0.281,0.066-0.963-0.08-1.201c0.078,0.127,0.13,0.204,0.144,0.221c0.854,1.092,1.66,1.983,2.392,2.71
		c1.336,3.421,2.351,9.814,2.351,9.814c-0.054-4.017-0.806-7.356-1.158-8.712c1.47,1.267,2.433,1.728,2.498,1.758l0.367,0.17
		l0.136-0.381c0.08-0.227,0.146-0.446,0.215-0.666c0.711,1.584,0.639,4.048,0.496,5.598l-0.007,0.001
		C293.043,154.804,293.046,154.822,293.046,154.833z M283.366,160.244c-0.647,1.149-1.319,3.004-1.63,3.899
		c-1.207-1.211-1.699-3.643-1.704-3.674c-0.683-3.189-0.742-6.533-0.675-8.751c0.064-0.515,0.104-1.047,0.129-1.589
		c0.67,0.979,1.408,1.768,2.156,2.395c0.838,2.935,0.213,6.606,0.213,6.606c1.051-3.065,0.74-5.229,0.563-6.01
		c0.981,0.69,1.949,1.134,2.765,1.42C285.016,157.122,283.38,160.218,283.366,160.244z M279.52,149.108l-0.023-0.002
		c-0.581-1.002-1.055-2.2-1.346-3.635c-0.067-0.607-0.174-1.162-0.244-1.49c0.857-0.351,1.711-0.651,2.441-0.873l0.053-0.021
		c0.154-0.074,0.299-0.154,0.451-0.23c-0.021,1.278,0.205,5.223,3.416,8.621c0,0-3.078-4.17-2.595-9.043
		c1.013-0.547,1.944-1.121,2.8-1.717c0.125,0.926,0.318,2.549,0.338,2.733c0.272,2.487,0.086,5.104,0.754,7.545
		c0.297,1.08,0.636,2.171,1.145,3.171c-1.579-0.375-5.089-1.432-7.191-5.021C279.518,149.133,279.52,149.121,279.52,149.108z
		 M272.557,152.11c0.414-0.271,0.795-0.596,1.116-0.984c0.188-0.23,0.853-1.337,0.734-2.082c-0.054-0.316-0.226-0.488-0.361-0.575
		c-0.623-0.399-0.912-0.806-0.854-1.215c0.062-0.446,0.492-0.925,1.131-1.397c1.175,2.371,1.425,7.232,1.425,7.232
		c0.133-4.336-0.515-6.794-0.8-7.654c0.718-0.442,1.583-0.871,2.469-1.252l0.02,1.098c0.229,2.093,0.297,6.312-1.068,11.464
		C275.205,155.681,273.061,153.606,272.557,152.11z M287.163,138.545c0.223,0.892,1.288,4.697,3.983,7.418
		c0,0-3.185-4.614-3.273-8.106c0.501-0.506,0.967-1.02,1.393-1.539c1.086,0.938,5.101,5.06,2.52,12.893
		c-0.816-0.484-2.924-1.927-5.438-5.141c-0.009-0.012-0.611-0.891-0.976-2.131c-0.099-0.808-0.188-1.408-0.236-1.707
		C285.869,139.685,286.544,139.121,287.163,138.545z M291.133,133.644c0.774,0.334,3.612,1.86,4.996,6.75
		c0,0-0.629-5.027-4.662-7.348c0.311-0.57,0.584-1.138,0.826-1.699c0.984,0.356,1.893,0.769,2.716,1.215
		c0.839,0.869,4.99,5.885,1.021,13.383c-0.232-3.547-2.188-7.405-6.293-10.225C290.261,135.03,290.727,134.336,291.133,133.644z
		 M296.947,113.75c1.51,0.183,7.688,0.81,10.438-0.742c0,0-2.901,1.046-9.047,0.257c0.622-0.162,1.06-0.209,1.069-0.211
		c5.156-0.464,9.504-1.75,13.175-3.553c-0.591,1.473-2.448,4.693-7.603,5.824c-0.029-0.006-0.051-0.01-0.062-0.012l-0.004,0.024
		c-1.862,0.397-4.152,0.527-6.969,0.203l-2.865-0.577C295.65,114.422,296.312,114.034,296.947,113.75z M321.488,102.999
		c-1.098,9.979-11.703,12.844-12.893,13.174c-0.731-0.217-1.436-0.395-2.03-0.527c1.868-0.554,3.251-1.402,4.265-2.316
		c0.213-0.074,4.949-1.764,8.173-6.48c0,0-3.149,3.467-6.828,4.983c0.913-1.271,1.254-2.415,1.351-2.812
		C316.678,107.339,319.303,105.265,321.488,102.999z M315.572,116.31c0.001,0,0.003,0,0.004,0c-0.021,0.01-0.039,0.021-0.06,0.033
		l0.062-0.033c1.894,0.033,3.768-0.316,5.611-0.717c-0.914,2.458-2.723,4.365-4.792,5.395c-3.409,1.695-7.357,0.906-9.13,0.4
		c1.032-0.46,2.126-1.056,3.05-1.591l-0.003,0.003c0,0,4.879-0.016,7.758-1.82c0,0-3.597,1.195-6.564,1.105
		c0.542-0.334,0.902-0.568,0.955-0.604l0.45-0.295l-0.439-0.313c-0.688-0.492-1.599-0.91-2.547-1.258
		c0.614-0.132,1.229-0.239,1.854-0.31C313.066,116.156,314.289,116.288,315.572,116.31z M294.416,115.742
		c0.075-0.11,0.156-0.211,0.238-0.312l3.318,0.586c3.021,0.426,5.463,0.33,7.436-0.078c0.7,0.174,1.957,0.511,3.263,0.963
		l0.004,0.015c0.002,0,0.012-0.003,0.021-0.006c1.02,0.356,2.063,0.782,2.883,1.261c-1.288,0.811-4.833,2.958-6.627,3.223
		c-0.022,0.004-0.875,0.166-2.28,0.176c-0.044-0.012-0.077-0.012-0.096,0c-2.094,0.005-5.367-0.336-8.961-1.993
		c-0.084-0.693-0.066-1.339,0.039-1.937c1.244,0.41,8.558,2.666,14.288,1.152c0,0-7.737,0.759-14.136-1.771
		C293.95,116.562,294.146,116.133,294.416,115.742z M299.229,121.906c1.176,0.208,2.217,0.299,3.088,0.329
		c0.867,0.637,3.652,3.013,3.213,6.918c0.011-0.324-1.364-1.135-1.609-1.286c-0.629-0.386-1.295-0.699-1.982-0.964
		c-1.383-0.532-2.838-0.865-4.297-1.125c-0.011-0.002-0.023-0.006-0.035-0.008c-1.23-0.218-2.479-0.345-3.717-0.39
		c0.086-0.745,0.125-1.416,0.135-1.998c0.969-0.03,6.021-0.039,9.15,2.613c0,0-2.74-3.117-9.15-3.356
		c-0.021-0.971-0.107-1.559-0.114-1.595c-0.077-0.282-0.142-0.56-0.194-0.828C295.713,121.101,297.596,121.617,299.229,121.906z
		 M293.165,128.931c0.528,0.131,4.383,1.178,7.776,4.502c0,0-2.252-3.396-7.596-5.162c0.217-0.836,0.366-1.629,0.471-2.365
		c1.111,0.051,2.479,0.215,3.603,0.4l0,0c0,0,7.659,3.729,5.001,11.979c-0.911-1.415-2.245-3.925-7.464-6.417
		c0-0.001-0.006-0.003-0.005-0.004l-0.001,0.001c-0.732-0.353-1.541-0.7-2.438-1.048
		C292.77,130.174,292.984,129.544,293.165,128.931z M311.22,130.825c-1.807-0.327-3.325-1.653-4.87-2.59
		c-0.028-1.12-0.28-2.123-0.644-2.989c1.699,1.075,6.021,3.576,9.41,3.562c0,0-5.244-0.996-9.656-4.718c0,0-0.245-0.161-0.563-0.347
		c-0.424-0.633-0.877-1.139-1.271-1.502c0.857-0.027,1.375-0.107,1.439-0.119c0.414-0.061,0.906-0.212,1.437-0.415
		c3.152,1.371,5.954,3.192,8.854,5.028c0.729,0.459,1.474,0.896,2.234,1.297c0.142,0.074,1.382,0.822,1.488,0.734
		c-0.887,0.721-2.291,1.487-3.362,1.887C314.207,131.214,312.791,131.108,311.22,130.825z M347.668,92.074
		c0.049-0.107,4.761-9.606,7.031-19.298c0.108,5.052-0.28,15.859-4.891,24.068l0.084,0.047c-0.279,0.426-0.564,0.853-0.859,1.282
		c-2.308,3.358-5.271,7.049-8.918,10.457C342.295,105.501,345.375,100.087,347.668,92.074L347.668,92.074z M349.956,63.712
		c0.468,11.533-0.906,20.759-2.919,27.906l0,0l0,0c-3.5,12.425-8.92,18.561-9.934,19.625c-4.89,3.925-10.804,7.188-17.811,8.662
		c0.653-0.625,1.219-1.357,1.699-2.188c2.619-1.051,14.011-6.244,17.493-18.246c0,0-4.159,11.55-16.735,16.704
		c0.127-0.317,0.246-0.64,0.355-0.979l0.194-0.621l-0.634,0.149c-0.286,0.071-0.577,0.127-0.865,0.189
		c-1.238,0.264-2.486,0.486-3.745,0.643c-0.029,0.002-0.062,0.004-0.093,0.008c7.93-4.396,13.965-10.323,18.531-16.497l0.021,0.013
		c0.005-0.006,0.046-0.074,0.113-0.196c4.244-5.777,7.21-11.759,9.243-16.896c0.66-1.667,1.24-3.294,1.759-4.867l0.009,0.001
		c0.002-0.013,0.001-0.026,0.002-0.039C348.449,71.602,349.438,66.825,349.956,63.712z M341.529,48.753
		c2.05,3.76,5.962,13.183,4.378,28.296h0.003c-0.454,1.35-0.961,2.745-1.529,4.176c-1.559,3.931-3.697,8.431-6.549,12.967
		c1.138-2.829,2.446-6.783,3.308-11.602c0.447-2.51,0.759-5.068,0.916-7.613c0.075-1.199,0.104-2.401,0.104-3.604
		C343.777,61.882,342.364,52.798,341.529,48.753z M340.419,82.428c-1.426,8.003-4.091,13.585-5.115,15.521
		c-4.835,6.7-11.334,13.159-19.956,17.647c-0.979-0.05-1.954-0.168-2.935-0.099c2.583-1.22,5.848-3.321,7.863-6.59
		c2.08-1.425,16.206-11.779,17.615-31.444c0,0-1.86,18.054-16.521,29.193c0.479-1.301,0.76-2.745,0.767-4.35
		c3.17-3.479,5.356-7.341,6.854-10.885c1.685-3.988,2.959-7.809,3.759-11.125c4.939-15.289,3.688-29.387,2.818-35.2
		C342.311,60.32,341.974,73.702,340.419,82.428z M325.971,33.121c2.915,2.914,8.421,9.836,9.462,21.259
		c0.1,5.245-0.244,11.93-1.717,19.403c0.126-2.814,0.06-6.035,0.06-6.035c-0.701-7.027-0.764-8.637-1.938-13.908
		c-0.539-2.419-1.029-4.308-1.604-6.049C329.906,45.219,328.816,38.445,325.971,33.121z M267.764,152.713
		c-0.186,0.009-0.959-0.048-1.774-0.192c-1.138-0.201-1.505-0.418-1.609-0.502c0.043-0.047,0.142-0.125,0.341-0.228
		c0.125-0.063,3.047-1.585,3.545-3.661c0.183-0.764,0.022-1.5-0.478-2.188c-0.812-1.121-1.258-2.934-0.313-4.264
		c1.121-1.586,3.183-1.783,5.178-1.973c0.498-0.047,0.971-0.092,1.43-0.159c3.828-0.558,8.177-3.526,11.078-7.562
		c2.329-3.24,3.316-6.646,2.781-9.596c-0.153-0.844-0.529-1.5-0.896-2.132c-0.187-0.319-0.374-0.649-0.532-0.999
		c-1.195-2.658-1.433-6.189,0.295-8.589c0.623-0.868,2.362-2.632,5.498-3.194c0.229-0.041,23.358-1.002,28.852-14.71
		c0.301-0.501,4.323-7.382,5.934-18.291c1.47-9.954,1.168-25.32-8.166-42.966c3.702,4.302,12.624,11.462,13.941,38.16
		c0,0,1.304,8.22-4.555,21.469c-5.622,12.721-15.155,19.94-28.969,21.182c-0.152,0.017-3.729,0.385-5.533,3
		c-0.713,1.039-1.031,2.281-0.977,3.689l-0.035-0.029l0.062,0.508c0.004,0.029,0.009,0.059,0.011,0.088l0.02,0.158l0.004-0.002
		c0.062,0.474,0.156,0.963,0.297,1.472c0.021,0.139,2.095,13.869-13.084,21.207c-0.87,0.266-7.312,2.317-7.645,4.746
		c-0.1,0.718,0.303,1.37,1.188,1.935c0.018,0.012,0.027,0.044,0.031,0.07c0.062,0.404-0.401,1.283-0.578,1.497
		C271.771,152.276,269.188,152.64,267.764,152.713z M271.202,152.792c0.294-0.111,0.584-0.242,0.864-0.391
		c0.367,1.097,1.328,2.334,2.252,3.34c0.214,2.318-0.61,4.99-0.61,4.99c0.987-1.393,1.168-3.422,1.194-4.375
		c0.746,0.76,1.356,1.285,1.422,1.342l0.436,0.373l0.158-0.553c1.053-3.707,1.257-7.412,1.247-9.838
		c0.208,0.497,0.435,0.957,0.674,1.394l-0.056-0.005c-0.004,0.023-0.112,1.029-0.16,2.586c-0.841,6.553-2.855,8.873-6.859,12.468
		C274.004,158.793,272.023,154.292,271.202,152.792z M275.045,170.299c-1.582-3.248-1.248-6.132-1.076-7.069
		c0.729-0.729,1.502-1.625,2.225-2.689c-0.021,2.098-0.93,5.861-0.93,5.861c1.229-3.661,1.67-6.104,1.83-7.34
		c0.68-1.248,1.26-2.679,1.627-4.293c0.062,1.49,0.154,3.332,0.435,5.019c-0.503,2.869-1.562,4.519-1.562,4.519
		C276.355,166.825,275.508,168.983,275.045,170.299z M282.885,174.089c-2.9-3.396-4.789-7.004-4.82-9.289
		c0.107-0.23,0.217-0.46,0.328-0.688c0.117-0.172,0.545-0.91,1.03-3.019c0.165,0.636,0.525,1.783,1.152,2.755
		c-0.275,3.855,1.291,6.863,1.291,6.863c-0.964-3.113-0.939-5.311-0.856-6.277c0.211,0.244,0.439,0.463,0.697,0.641l0.406,0.279
		l0.152-0.471c0.006-0.018,0.418-1.277,0.938-2.55c0.006,0.694,0.054,1.537,0.199,2.46
		C282.579,169.403,282.594,172.431,282.885,174.089z M289.764,173.408c-6.14-3.777-6.058-10.681-5.918-12.498
		c0.057-0.108,0.111-0.213,0.168-0.312c0.065-0.121,1.329-2.994,1.756-5.457c0.217,0.412,0.498,0.942,0.844,1.547
		c-1.686,6.943,0.658,11.625,0.658,11.625c-1.522-6.785-0.365-10.013-0.08-10.66c0.58,0.938,1.293,1.979,2.138,3.011
		C288.327,168.552,289.168,171.697,289.764,173.408z M298.752,172.828c-6.639-4.091-8.438-9.535-8.888-11.529
		c0.467,0.532,0.972,1.056,1.514,1.554l0.485,0.444l0.126-0.647c0.006-0.029,0.39-1.982,0.844-3.777
		c-0.213,5.463,2.212,8.794,2.212,8.794c-1.895-4.354-1.604-8.972-1.451-10.399c0.543,1.889,1.578,4.608,3.469,7.239
		C296.408,167.978,297.748,171.079,298.752,172.828z M308.607,171.315c-11.416-2.627-14.32-13.265-14.879-15.961
		c0.103-1.018,0.192-2.662-0.039-4.217c0.843,1.055,2.018,2.317,3.541,3.5c0.362,5.396,6,12.11,6,12.11
		c-4.688-7.541-5.125-10.487-5.08-11.442c0.927,0.637,1.965,1.226,3.117,1.727c0.642,1.794,1.287,3.398,1.918,4.834l-0.02,0.019
		c0.003,0.003,0.021,0.023,0.05,0.054C305.51,167.142,307.604,170.075,308.607,171.315z M303.943,161.837
		c-0.623-1.333-1.276-2.831-1.955-4.508l0.283,0.111l0.045-0.489c0.013-0.127,0.232-2.517,0.23-4.444
		c4.896,10.721,8.357,11.141,8.357,11.141c-3.564-1.877-7.031-9.703-8.451-13.237c-0.104-1.399-0.564-4.836-2.674-7.276
		c1.279,0.889,3.016,2.346,4.691,4.575c3.775,13.569,10.479,17.502,13.413,18.562C310.867,167.726,305.346,163.144,303.943,161.837z
		 M328.415,159.763c-9.938,4.822-17.943-1.031-18.908-1.779c-1.18-1.805-2.322-4.012-3.329-6.713
		c6.342,8.226,14.511,8.254,14.511,8.254c-8.849-1.155-14.005-9.035-14.005-9.035l-0.199-0.268c0.022-0.045,0.329-0.625,0.645-1.584
		c1.021,1.205,2.135,2.287,3.309,3.26l0.005,0.014c0.003,0,0.021,0.011,0.028,0.015
		C317.132,157.433,325.576,159.377,328.415,159.763z M339.943,149.786c-10.393,10.527-27.232,2.488-29.622,1.277
		c-1.063-0.905-2.076-1.91-3.013-3.022c0.154-0.55,0.298-1.187,0.396-1.888c9.167,7.133,21.161,5.144,21.161,5.144
		c-11.339,1.177-19.478-4.805-21.064-6.077c0.062-0.824,0.048-1.719-0.079-2.656c8.083,4.436,16.367,6.316,22.655,7.018
		l-0.009,0.078c0.676,0.087,1.333,0.115,1.967,0.107C335.829,150.043,338.523,149.95,339.943,149.786z M343.458,143.456
		c-1.47,1.688-5.03,5.07-10.166,5.52c-3.821-0.221-8.775-0.838-14.101-2.363c2.001,0,6.302-0.135,11.172-1.059
		C331.609,145.621,336.444,145.69,343.458,143.456z M330.447,144.817c-0.205-0.008-0.316-0.019-0.324-0.02l-0.008,0.085
		c-6.832,1.314-12.709,1.093-13.047,1.076c-3.114-1.019-6.316-2.356-9.463-4.12c-0.257-1.3-0.744-2.669-1.576-4.042
		c1,0.69,2.112,1.323,3.326,1.775c12.5,6.909,22.984,1.485,22.984,1.485c-9.775,3.027-17.313,0.238-19.619-0.808
		c0.438,0.011,0.883-0.004,1.336-0.056l0.816-0.147l-0.669-0.838c-0.128-0.298-0.253-0.595-0.372-0.896
		c-0.198-0.496-0.38-0.998-0.562-1.502c1.479,0.395,2.929,0.715,4.341,0.965c10.106,1.789,19.633-0.278,25.857-2.383l0.002,0.004
		c0.016-0.006,0.03-0.016,0.046-0.021c3.088-1.047,5.361-2.102,6.476-2.693C346.316,140.031,337.868,143.341,330.447,144.817z
		 M351.624,125.903c-0.882,2.017-3.117,6.102-7.449,8.348c-3.748,1.337-8.882,2.754-14.755,3.273
		c1.173-0.352,2.637-0.871,4.648-1.639c2.351-0.898,4.774-2.164,7.262-3.935C342.098,131.634,346.432,129.769,351.624,125.903z
		 M333.819,135.185c-5.947,2.502-8.546,2.492-10.842,2.508c-3.204-0.123-6.54-0.571-9.922-1.471
		c-0.209-0.582-0.426-1.16-0.672-1.727c-0.266-0.605-0.584-1.194-0.951-1.744c-0.234-0.352-0.78-1.333-1.202-1.473
		c0.387,0.129,0.788,0.238,1.2,0.324c13.73,7.476,30.98-5.852,30.98-5.852c-14.945,9.844-25.19,7.126-28.113,5.993
		c1.742-0.204,3.627-0.981,5.608-2.716c18.85-0.18,32.24-12.557,37.045-16.471C348.709,126.231,341.477,131.961,333.819,135.185z"/>
	<path d="M270.209,144.556c-0.039-1.399,1.384-1.744,3.107-2.02l0.3-0.051c1.948-0.326,4.026-0.767,6.044-1.762
		c5.667-2.803,11.574-8.891,12.008-16.183c0.133-2.249-0.715-4.041-1.611-5.935c-0.13-0.276-0.262-0.555-0.393-0.836
		c-0.896-1.957-0.498-4.76,0.906-6.383c0.656-0.76,2.451-1.431,3.818-1.193c0.534,0.094,1.229,0.47,1.131,1.1
		c-0.246,1.6-2.94,0.779-1.777-0.197c-0.604,0.506-0.709,1.203,0.096,1.502c0.893,0.329,1.741-0.187,2.234-0.945
		c0.713-1.104-0.534-1.995-1.549-2.185c-1.521-0.28-3.607,0.394-4.512,1.435c-1.58,1.828-2.025,4.979-1.018,7.175
		c0.131,0.282,0.263,0.563,0.395,0.843c0.855,1.807,1.663,3.514,1.541,5.576c-0.41,6.959-6.301,12.947-11.597,15.564
		c-1.933,0.953-3.946,1.379-5.841,1.697l-0.294,0.049c-1.419,0.229-3.789,0.609-3.728,2.77c0.021,0.764,0.381,1.351,0.697,1.869
		c0.402,0.654,0.721,1.17,0.451,1.955c-0.293,0.861-1.102,1.408-1.727,1.717c0.773,0.137,2.051-0.378,2.424-1.479
		c0.381-1.115-0.098-1.894-0.52-2.578C270.503,145.578,270.225,145.123,270.209,144.556z"/>
</g>
<g>
	<path d="M39.587,155.248c0.005,0,0.009-0.001,0.013-0.002c0.013-0.002,0.025-0.004,0.037-0.006L39.587,155.248z"/>
	<path d="M39.637,155.239l0.787-0.135C40.164,155.151,39.9,155.194,39.637,155.239z"/>
	<path d="M1.314,111.075c5.021,8.806,9.944,14.763,14.674,18.783c-2.079-1.096-5.005-2.83-8.19-5.312l-0.917-0.719l0.338,1.115
		c0.074,0.242,1.493,4.757,5.468,8.101c-2.075-0.876-3.27-1.53-3.306-1.554l-1.034-0.668l0.498,1.127
		c2.922,7.175,10.058,10.853,16.965,12.732c-2.49-0.25-5.998-0.859-10.189-2.3l-1.049-0.36l0.624,0.918
		c0.041,0.059,3.076,4.422,8.354,6.148c-2.669,0.021-4.296-0.143-4.351-0.152l-0.999-0.166l0.658,0.77
		c6.083,7.122,14.022,6.824,20.744,5.705c2.992-0.533,5.692-1.48,7.529-2.23c-7.7,5.215-16.56,6.137-16.663,6.145l-1.122,0.07
		l0.945,0.606c4.379,2.812,9.635,2.571,13.082,1.96c2.833-0.503,4.972-1.646,6.181-2.438c-4.325,5.762-8.814,6.549-8.885,6.561
		l-1.793,0.171l1.739,0.546c2.423,0.752,4.689,0.788,6.714,0.428c3.654-0.648,6.518-2.576,8.119-3.889
		c-3.103,6.344-5.256,8.424-5.283,8.45l-0.901,0.847l1.216-0.216c5.751-1.021,9.524-3.937,11.995-7.101
		c0.438,4.418-2.583,8.475-2.616,8.517l-0.911,1.058l1.378-0.508c6.666-3.568,9.144-8.611,10.05-11.521
		c0.626,8.224-1.167,11.325-1.186,11.356l-0.663,1.105l1.147-0.587c4.16-2.127,5.941-5.495,6.674-8.421
		c0.905,6.236-0.245,9.107-0.258,9.14l-0.619,1.448l1.232-1.062c3.211-3.441,5.268-7.182,5.714-9.902
		c1.267,2.869,2.137,5.51,2.147,5.543l0.258,0.789l0.412-0.721c1.767-3.095,1.74-5.951,1.53-7.504
		c1.293,1.176,2.293,1.762,2.321,1.778l1.382,0.802l-0.861-1.292c-3.173-5.715-0.978-10.793-0.226-12.217
		c1.05,0.313,2.093,0.431,2.84,0.469c0.251,0.013,1.087-0.052,1.94-0.204c1.888-0.335,2.726-0.695,2.779-1.046
		c0.082-0.546-1.092-0.958-1.302-1.065c-0.027-0.016-2.748-1.431-3.165-3.178c-0.132-0.552-0.016-1.068,0.355-1.582
		c0.961-1.326,1.659-3.658,0.095-5.551c-0.98-1.188-3.429-1.654-5.488-1.847c-0.49-0.048-0.954-0.093-1.393-0.155
		c-3.585-0.52-7.841-3.436-10.59-7.256c-1.173-1.632-2.057-3.52-2.424-5.501c-0.428-2.31-0.38-3.445,0.996-6.14
		c1.854-3.625,1.492-7.067-0.054-9.523c-1.344-2.133-4.636-3.658-7.048-3.759c-0.23-0.011-22.166-1.002-27.414-14.15l-0.029-0.057
		c-0.042-0.068-4.221-6.935-5.864-18.073c-1.516-10.275-0.92-26.018,9.568-44.466c0,0,1.148-2.039,1.149-2.04
		c0,0-0.416,0.074-1.613,1.063c-2.911,2.403-7.41,7.094-9.16,10.385c-1.039,1.954-1.84,3.557-2.507,5.079
		c0.745-3.784,2.194-9.144,4.836-12.937l1.314-1.633l-1.833,1.124c-0.087,0.063-7.457,5.493-10.476,17.082
		c0.323-3.35,0.738-5.302,0.752-5.366l0.99-4.054c-3.604,5.958-6.106,12.542-7.452,19.363c-0.573,2.903-0.981,5.849-1.197,8.808
		c-0.85-10.727,1.64-19.873,1.669-19.977l0.744-1.929l-1.391,1.605c-0.074,0.095-6.996,9.282-5.926,27.509
		c-2.43-8.197-2.843-14.018-2.85-14.095L9.958,56.95l-0.457,2.912C8.679,71.188,9.596,80.47,11.258,87.898
		C9.452,83.711,6.684,76.621,5.412,69.86l-0.335-2.577l-0.395,2.611c-0.012,0.138-1.089,12.11,2.722,22.608
		C3.442,85.537,1.61,79.959,1.588,79.889l-0.656-2.527l-0.063,2.645c0.168,14.32,4.822,24.607,9.784,31.537
		c-2.144-1.877-5.222-5.014-7.038-8.845l-1.186-2.527l0.488,2.744c0.058,0.356,1.23,7.44,4.963,12.62
		c-3.701-2.747-5.938-4.859-5.995-4.913l-1.691-1.792L1.314,111.075z M12.519,113.987c0.659,0.809,1.314,1.562,1.957,2.257
		c4.342,4.698,8.733,7.722,11.253,9.249c-5.859-2.174-11.141-5.28-15.237-8.092c-3.593-3.334-5.475-8.92-6.304-12.133
		C7.249,110.147,11.757,113.45,12.519,113.987z M10.342,98.59c2.946,4.284,6.946,9.103,12.057,13.209
		c0.094,0.099,0.149,0.153,0.157,0.161l0.017-0.02c5.262,4.189,11.691,7.621,19.363,8.951c0.334,0.225,0.681,0.435,1.048,0.617
		c2.508,1.244,5.304,1.288,7.444,1.03c-1.077,0.515-2.109,1.106-3.126,1.719c-3.286,0.378-17.882,1.103-30.565-13.608
		c0,0,10.994,16.062,29.005,14.564c-1.554,0.964-3.107,1.93-4.765,2.713c-0.268,0.126-0.539,0.256-0.813,0.369
		c-2.759,0.008-5.5-0.336-8.174-0.934c-3.323-0.979-10.502-4.604-16.997-11.644c-0.643-0.696-1.298-1.452-1.958-2.265l0.002-0.003
		c0-0.001-0.009-0.007-0.014-0.011C7.798,107.002,2.344,96.875,1.67,82.251C2.931,85.472,5.744,91.908,10.342,98.59z M46.53,139.406
		c0.307-0.739,0.981-2.403,1.546-4.107c0.535-1.612,1.75-3.241,3-4.354c0.213-0.189,1.768-1.484,2.603-1.9
		c0.022,0.327,0.064,0.663,0.13,1.01l0.095,0.846l0.552-0.647c1.633-1.919,3.856-2.968,6.213-3.562
		c-0.806,0.543-2.132,1.615-3.115,3.297c-4.994,2.83-6.568,6.443-6.568,6.443c2.07-2.802,4.774-4.603,6.015-5.339
		c-0.453,1.085-0.736,2.373-0.708,3.869c-0.037,0.034-0.073,0.071-0.11,0.106C55.337,135.864,50.494,140.231,46.53,139.406z
		 M56.354,135.944c0.11,1.023,0.361,2.133,0.804,3.34l0.29,0.79l0.384-0.748c0.021-0.042,1.698-3.22,5.628-5.845
		c-0.63,0.828-1.291,1.972-1.665,3.447c-5.176,2.982-7.011,7.899-7.011,7.899c1.705-3.161,5.97-6.25,6.806-6.835
		c-0.149,1.074-0.136,2.294,0.124,3.658c-1.098,0.474-4.833,2.347-7.932,7.32C53.029,147.045,51.35,141.142,56.354,135.944z
		 M61.884,142.428c0.223,0.884,0.546,1.823,0.997,2.821c-1.783,3.254-2.357,7.57-2.357,7.57c1.657-4.313,2.527-6.004,2.844-6.562
		c0.015,0.028,0.026,0.056,0.041,0.082l0.873,1.239l0.585-2.789c0.012-0.053,0.397-2.908,3.222-6.284
		c-1.084,2.147-1.966,5.634-0.833,9.944c-0.114,0.168-0.219,0.344-0.311,0.533c-0.957,1.504-3.759,5.342-8.545,7.394
		c-0.092-1.126-0.287-3.881-0.127-5.306C58.275,150.981,58.272,145.058,61.884,142.428z M66.981,154.791l-0.006-0.002
		c-0.142-1.549-0.217-4.013,0.493-5.599c0.068,0.221,0.135,0.44,0.216,0.666l0.134,0.381l0.368-0.17
		c0.065-0.029,1.028-0.491,2.497-1.758c-0.351,1.354-1.104,4.694-1.154,8.711c0,0,1.012-6.393,2.345-9.814
		c0.731-0.729,1.537-1.619,2.391-2.712c0.012-0.017,0.064-0.093,0.143-0.22c-0.146,0.238-0.065,0.92-0.081,1.201
		c-0.023,0.455-0.042,0.909-0.051,1.366c-0.023,1.14-0.082,2.185-0.36,3.291c-0.253,1.005-0.54,2.013-0.933,2.972
		c-0.192,0.469-0.402,0.938-0.705,1.346l-0.511,0.691l0.854-0.104c0.019-0.003,0.444-0.031,1.114-0.188
		c-0.695,1.381-2.365,4.326-5.104,6.995c-0.276-1.339-0.933-4.353-1.487-5.666c-0.022-0.141-0.1-0.651-0.166-1.354
		C66.979,154.81,66.981,154.792,66.981,154.791z M74.84,154.524c0.816-0.287,1.782-0.729,2.764-1.422
		c-0.178,0.782-0.485,2.945,0.566,6.01c0,0-0.627-3.672,0.21-6.606c0.749-0.629,1.485-1.416,2.155-2.396
		c0.026,0.541,0.064,1.074,0.13,1.589c0.068,2.218,0.011,5.562-0.669,8.751c-0.006,0.033-0.496,2.464-1.705,3.675
		c-0.31-0.896-0.983-2.75-1.63-3.897C76.648,160.201,75.009,157.106,74.84,154.524z M80.504,149.125
		c-2.101,3.591-5.608,4.649-7.189,5.026c0.51-1.002,0.848-2.094,1.143-3.172c0.667-2.44,0.479-5.058,0.749-7.545
		c0.021-0.185,0.214-1.81,0.339-2.734c0.855,0.596,1.786,1.169,2.799,1.714c0.487,4.874-2.59,9.045-2.59,9.045
		c3.209-3.399,3.434-7.344,3.414-8.622c0.152,0.076,0.295,0.156,0.45,0.23l0.054,0.021c0.729,0.222,1.583,0.522,2.441,0.871
		c-0.069,0.328-0.177,0.883-0.243,1.49c-0.29,1.436-0.762,2.634-1.344,3.637h-0.021C80.503,149.103,80.504,149.114,80.504,149.125z
		 M83.661,156.726c-1.369-5.15-1.305-9.371-1.077-11.463l0.019-1.099c0.886,0.381,1.752,0.808,2.469,1.251
		c-0.285,0.859-0.93,3.318-0.797,7.654c0,0,0.249-4.862,1.422-7.234c0.639,0.473,1.07,0.951,1.131,1.398
		c0.057,0.408-0.231,0.814-0.854,1.215c-0.137,0.086-0.309,0.257-0.36,0.574c-0.118,0.744,0.546,1.85,0.734,2.08
		c0.321,0.392,0.705,0.715,1.119,0.985C86.962,153.583,84.82,155.66,83.661,156.726z M74.88,140.215
		c-0.047,0.3-0.138,0.901-0.236,1.709c-0.361,1.24-0.964,2.118-0.972,2.132c-2.513,3.213-4.618,4.657-5.435,5.143
		c-2.584-7.832,1.428-11.954,2.514-12.893c0.425,0.519,0.891,1.03,1.392,1.536c-0.088,3.493-3.268,8.109-3.268,8.109
		c2.693-2.724,3.758-6.529,3.978-7.421C73.472,139.106,74.147,139.668,74.88,140.215z M70.277,135.707
		c-4.104,2.819-6.055,6.681-6.287,10.228c-3.973-7.498,0.177-12.515,1.013-13.385c0.825-0.447,1.729-0.857,2.716-1.217
		c0.243,0.562,0.516,1.129,0.827,1.7c-4.032,2.321-4.659,7.35-4.659,7.35c1.383-4.891,4.22-6.417,4.994-6.752
		C69.289,134.322,69.753,135.017,70.277,135.707z M64.923,114.953l-2.868,0.58c-2.814,0.325-5.104,0.198-6.969-0.2l-0.003-0.023
		c-0.008,0.002-0.032,0.006-0.06,0.012c-5.155-1.127-7.013-4.348-7.605-5.82c3.672,1.801,8.018,3.084,13.176,3.545
		c0.01,0.002,0.446,0.049,1.069,0.21c-6.145,0.794-9.046-0.251-9.046-0.251c2.749,1.551,8.93,0.919,10.439,0.736
		C63.69,114.022,64.354,114.412,64.923,114.953z M46.476,109.019c0.097,0.396,0.438,1.539,1.35,2.812
		c-3.678-1.517-6.83-4.979-6.83-4.979c3.228,4.713,7.963,6.402,8.175,6.477c1.015,0.913,2.397,1.761,4.265,2.314
		c-0.593,0.133-1.298,0.312-2.029,0.527c-1.188-0.329-11.797-3.188-12.899-13.167C40.695,105.267,43.321,107.339,46.476,109.019z
		 M48.224,116.301c0.623,0.071,1.24,0.179,1.853,0.31c-0.949,0.35-1.858,0.768-2.547,1.26l-0.438,0.312l0.451,0.295
		c0.052,0.035,0.413,0.271,0.956,0.604c-2.969,0.091-6.565-1.102-6.565-1.102c2.878,1.804,7.759,1.815,7.759,1.815l-0.003-0.003
		c0.922,0.535,2.017,1.13,3.05,1.589c-1.771,0.507-5.719,1.3-9.129-0.396c-2.07-1.028-3.878-2.935-4.794-5.393
		c1.844,0.399,3.718,0.748,5.612,0.715l0.062,0.032c-0.021-0.011-0.041-0.021-0.061-0.032c0.001,0,0.003,0,0.004,0
		C45.716,116.287,46.938,116.153,48.224,116.301z M66.198,117.008c-6.397,2.535-14.135,1.78-14.135,1.78
		c5.733,1.511,13.042-0.748,14.285-1.159c0.108,0.597,0.124,1.243,0.043,1.937c-3.593,1.66-6.867,2.002-8.961,1.998
		c-0.017-0.012-0.05-0.014-0.094,0c-1.406-0.008-2.259-0.17-2.281-0.174c-1.793-0.264-5.34-2.41-6.628-3.219
		c0.819-0.479,1.861-0.904,2.882-1.262c0.009,0.003,0.018,0.006,0.021,0.006l0.004-0.016c1.307-0.453,2.562-0.789,3.262-0.963
		c1.974,0.406,4.416,0.5,7.434,0.074l3.319-0.59c0.083,0.102,0.165,0.203,0.24,0.312C65.857,116.122,66.056,116.549,66.198,117.008z
		 M66.292,120.205c-0.051,0.269-0.115,0.545-0.193,0.829c-0.006,0.035-0.094,0.624-0.113,1.594c-6.41,0.243-9.149,3.362-9.149,3.362
		c3.129-2.654,8.181-2.647,9.149-2.618c0.011,0.583,0.048,1.253,0.136,1.998c-1.239,0.046-2.487,0.174-3.718,0.393
		c-0.011,0.002-0.024,0.004-0.037,0.006c-1.457,0.263-2.911,0.597-4.295,1.131c-0.687,0.264-1.353,0.576-1.98,0.963
		c-0.246,0.152-1.621,0.963-1.611,1.287c-0.441-3.904,2.342-6.281,3.21-6.918c0.871-0.031,1.913-0.125,3.087-0.332
		C62.411,121.608,64.293,121.089,66.292,120.205z M67.499,130.808c-0.896,0.346-1.705,0.695-2.438,1.047l0,0
		c0,0-0.004,0.002-0.004,0.004c-5.218,2.496-6.551,5.006-7.46,6.42c-2.663-8.25,4.996-11.981,4.996-11.981H62.59
		c1.125-0.187,2.49-0.351,3.602-0.403c0.104,0.736,0.256,1.53,0.472,2.366c-5.341,1.769-7.591,5.166-7.591,5.166
		c3.39-3.325,7.245-4.376,7.774-4.507C67.027,129.532,67.241,130.162,67.499,130.808z M44.297,130.651
		c-1.072-0.398-2.477-1.164-3.365-1.885c0.108,0.088,1.349-0.662,1.488-0.734c0.763-0.402,1.507-0.838,2.236-1.299
		c2.898-1.838,5.699-3.66,8.851-5.033c0.529,0.203,1.022,0.354,1.436,0.415c0.064,0.012,0.583,0.09,1.44,0.118
		c-0.394,0.365-0.847,0.871-1.27,1.502c-0.32,0.187-0.564,0.348-0.564,0.348c-4.411,3.725-9.654,4.725-9.654,4.725
		c3.39,0.012,7.709-2.492,9.408-3.568c-0.362,0.867-0.613,1.871-0.643,2.99c-1.544,0.938-3.061,2.265-4.868,2.594
		C47.222,131.106,45.805,131.213,44.297,130.651z M12.324,92.09c2.296,8.013,5.378,13.425,7.559,16.552
		c-3.646-3.406-6.612-7.096-8.922-10.453c-0.296-0.428-0.581-0.855-0.86-1.281l0.084-0.047c-4.613-8.207-5.009-19.014-4.903-24.065
		C7.558,82.487,12.275,91.983,12.324,92.09L12.324,92.09z M13.339,77.104c0.001,0.013,0.002,0.025,0.004,0.038l0.008-0.001
		c0.52,1.573,1.101,3.199,1.761,4.866c2.037,5.135,5.005,11.116,9.251,16.892c0.07,0.122,0.11,0.189,0.113,0.196l0.021-0.013
		c4.57,6.17,10.607,12.095,18.54,16.485c-0.031-0.004-0.062-0.004-0.092-0.008c-1.259-0.156-2.506-0.377-3.746-0.641
		c-0.29-0.061-0.579-0.117-0.867-0.188l-0.634-0.15l0.197,0.62c0.108,0.339,0.229,0.661,0.355,0.978
		c-12.575-5.145-16.74-16.694-16.74-16.694c3.487,11.999,14.882,17.187,17.502,18.237c0.481,0.828,1.046,1.562,1.7,2.187
		c-7.006-1.472-12.924-4.731-17.815-8.653c-1.013-1.064-6.437-7.197-9.942-19.62l0,0l0,0c-2.018-7.146-3.398-16.371-2.934-27.905
		C10.54,66.843,11.533,71.619,13.339,77.104z M17.822,71.388c0.001,1.203,0.028,2.405,0.104,3.604
		c0.16,2.545,0.471,5.103,0.922,7.612c0.864,4.818,2.173,8.771,3.313,11.6c-2.854-4.535-4.996-9.034-6.556-12.964
		c-0.567-1.431-1.076-2.826-1.532-4.175h0.004c-1.591-15.112,2.315-24.538,4.363-28.298C17.607,52.812,16.198,61.896,17.822,71.388z
		 M24.398,45.109c-0.868,5.813-2.111,19.913,2.837,35.198c0.802,3.315,2.08,7.135,3.766,11.123
		c1.498,3.544,3.686,7.404,6.859,10.881c0.006,1.604,0.289,3.049,0.768,4.349C23.963,95.529,22.091,77.476,22.091,77.476
		c1.421,19.665,15.551,30.009,17.634,31.435c2.017,3.268,5.282,5.367,7.867,6.586c-0.98-0.07-1.957,0.049-2.935,0.1
		c-8.625-4.484-15.127-10.938-19.964-17.639c-1.024-1.935-3.695-7.515-5.124-15.518C18.008,73.715,17.665,60.333,24.398,45.109z
		 M29.733,47.798c-0.573,1.741-1.062,3.63-1.6,6.05c-1.172,5.271-1.232,6.882-1.929,13.909c0,0-0.067,3.221,0.061,6.035
		c-1.474-7.473-1.822-14.157-1.727-19.402c1.035-11.424,6.537-18.349,9.452-21.264C31.147,38.452,30.061,45.226,29.733,47.798z
		 M86.92,150.636c-0.175-0.215-0.641-1.093-0.576-1.496c0.004-0.027,0.012-0.061,0.028-0.07c0.887-0.566,1.286-1.217,1.188-1.937
		c-0.335-2.429-6.778-4.476-7.648-4.741c-15.181-7.33-13.116-21.062-13.094-21.201c0.141-0.508,0.234-0.998,0.294-1.471l0.004,0.002
		l0.018-0.158c0.004-0.03,0.008-0.06,0.011-0.088l0.062-0.509l-0.036,0.03c0.057-1.409-0.264-2.65-0.979-3.689
		c-1.803-2.615-5.381-2.98-5.533-2.996c-13.814-1.235-23.352-8.451-28.981-21.168c-5.864-13.246-4.564-21.466-4.564-21.466
		c1.303-26.698,10.22-33.863,13.921-38.167c-9.326,17.65-9.618,33.017-8.145,42.97c1.616,10.908,5.643,17.786,5.945,18.287
		c5.5,13.705,28.628,14.655,28.857,14.695c3.136,0.562,4.875,2.325,5.501,3.191c1.727,2.398,1.492,5.932,0.298,8.589
		c-0.157,0.35-0.347,0.68-0.531,0.999c-0.365,0.634-0.741,1.29-0.895,2.133c-0.533,2.949,0.457,6.355,2.787,9.593
		c2.903,4.034,7.253,7,11.083,7.556c0.458,0.066,0.93,0.111,1.43,0.158c1.993,0.19,4.056,0.385,5.177,1.969
		c0.943,1.332,0.5,3.145-0.312,4.266c-0.499,0.688-0.658,1.424-0.475,2.188c0.498,2.076,3.421,3.597,3.546,3.66
		c0.2,0.104,0.297,0.18,0.342,0.227c-0.107,0.086-0.474,0.303-1.611,0.504c-0.815,0.145-1.59,0.203-1.774,0.193
		C90.835,152.615,88.25,152.253,86.92,150.636z M88.265,164.099c-4.003-3.593-6.02-5.912-6.864-12.465
		c-0.05-1.558-0.16-2.562-0.162-2.586l-0.056,0.004c0.239-0.435,0.465-0.896,0.673-1.394c-0.01,2.427,0.198,6.132,1.252,9.838
		l0.158,0.554l0.437-0.375c0.063-0.057,0.674-0.583,1.419-1.341c0.027,0.952,0.207,2.981,1.197,4.375c0,0-0.825-2.673-0.614-4.991
		c0.924-1.006,1.885-2.244,2.25-3.341c0.28,0.149,0.57,0.278,0.865,0.39C88,154.269,86.023,158.771,88.265,164.099z M82.436,164.284
		c0,0-1.06-1.646-1.564-4.518c0.279-1.687,0.369-3.527,0.433-5.019c0.368,1.614,0.948,3.043,1.628,4.292
		c0.161,1.234,0.604,3.678,1.833,7.338c0,0-0.911-3.764-0.931-5.861c0.723,1.065,1.498,1.959,2.224,2.688
		c0.173,0.938,0.509,3.823-1.071,7.071C84.525,168.962,83.674,166.804,82.436,164.284z M76.628,164.778
		c0.144-0.924,0.193-1.766,0.196-2.461c0.522,1.273,0.935,2.533,0.941,2.551l0.152,0.47l0.407-0.278
		c0.255-0.177,0.485-0.396,0.694-0.641c0.084,0.967,0.111,3.164-0.852,6.277c0,0,1.564-3.01,1.288-6.864
		c0.626-0.972,0.985-2.119,1.15-2.754c0.487,2.108,0.914,2.845,1.032,3.019c0.111,0.228,0.221,0.456,0.328,0.687
		c-0.029,2.284-1.916,5.893-4.815,9.291C77.439,172.413,77.454,169.385,76.628,164.778z M70.7,160.649
		c0.845-1.031,1.555-2.072,2.135-3.01c0.284,0.647,1.444,3.873-0.075,10.66c0,0,2.34-4.684,0.651-11.627
		c0.347-0.604,0.628-1.134,0.844-1.547c0.427,2.462,1.694,5.334,1.76,5.457c0.054,0.098,0.11,0.203,0.166,0.311
		c0.141,1.817,0.228,8.722-5.911,12.5C70.864,171.683,71.704,168.539,70.7,160.649z M62.966,164.496
		c1.891-2.632,2.924-5.353,3.466-7.242c0.151,1.429,0.444,6.046-1.447,10.401c0,0,2.424-3.333,2.208-8.797
		c0.455,1.795,0.84,3.748,0.846,3.779l0.126,0.646l0.484-0.445c0.542-0.499,1.046-1.021,1.514-1.554
		c-0.45,1.995-2.244,7.44-8.882,11.534C62.285,171.069,63.624,167.967,62.966,164.496z M56.811,161.933
		c0.029-0.031,0.047-0.052,0.051-0.055l-0.02-0.02c0.63-1.437,1.274-3.041,1.916-4.834c1.153-0.502,2.19-1.092,3.117-1.729
		c0.045,0.956-0.39,3.902-5.074,11.445c0,0,5.633-6.717,5.994-12.114c1.523-1.183,2.698-2.444,3.539-3.502
		c-0.232,1.558-0.139,3.201-0.037,4.219c-0.556,2.697-3.456,13.337-14.87,15.968C52.429,170.069,54.521,167.138,56.811,161.933z
		 M42.146,166.271c2.934-1.061,9.633-4.996,13.403-18.567c1.674-2.231,3.409-3.69,4.689-4.578c-2.107,2.44-2.569,5.879-2.67,7.276
		c-1.417,3.537-4.879,11.363-8.443,13.244c0,0,3.462-0.422,8.35-11.146c0,1.928,0.222,4.315,0.234,4.442l0.046,0.49l0.283-0.111
		c-0.678,1.677-1.331,3.174-1.952,4.508C54.683,163.14,49.164,167.722,42.146,166.271z M49.554,151.923
		c0.008-0.005,0.025-0.014,0.028-0.015l0.005-0.013c1.171-0.975,2.287-2.057,3.306-3.262c0.316,0.958,0.623,1.538,0.645,1.583
		l-0.199,0.269c0,0-5.152,7.883-14,9.043c0,0,8.167-0.034,14.504-8.262c-1.005,2.701-2.145,4.909-3.325,6.715
		c-0.963,0.748-8.966,6.604-18.907,1.789C34.449,159.382,42.894,157.435,49.554,151.923z M27.684,149.774
		c0.636,0.008,1.29-0.021,1.968-0.108l-0.01-0.078c6.289-0.704,14.572-2.59,22.652-7.03c-0.127,0.939-0.139,1.834-0.08,2.658
		c-1.587,1.273-9.721,7.26-21.06,6.088c0,0,11.997,1.982,21.159-5.154c0.099,0.701,0.242,1.336,0.397,1.887
		c-0.935,1.113-1.948,2.117-3.01,3.025c-2.388,1.209-19.226,9.258-29.624-1.264C21.499,149.961,24.192,150.053,27.684,149.774z
		 M29.656,145.562c4.871,0.922,9.172,1.056,11.172,1.054c-5.325,1.526-10.278,2.147-14.099,2.37
		c-5.136-0.446-8.699-3.827-10.17-5.514C23.576,145.702,28.41,145.629,29.656,145.562z M10.021,132.7
		c1.115,0.593,3.389,1.646,6.477,2.689c0.016,0.008,0.031,0.017,0.047,0.022v-0.004c6.227,2.102,15.752,4.164,25.86,2.37
		c1.414-0.252,2.861-0.572,4.338-0.967c-0.18,0.504-0.361,1.006-0.56,1.502c-0.12,0.302-0.245,0.599-0.371,0.896l-0.669,0.839
		l0.817,0.146c0.452,0.053,0.896,0.068,1.335,0.057c-2.304,1.046-9.842,3.84-19.619,0.816c0,0,10.488,5.418,22.986-1.498
		c1.209-0.452,2.325-1.086,3.324-1.776c-0.832,1.374-1.319,2.742-1.574,4.042c-3.146,1.764-6.347,3.104-9.46,4.124
		c-0.338,0.019-6.213,0.243-13.048-1.069l-0.009-0.084c-0.008,0-0.118,0.01-0.323,0.02C22.152,143.353,13.7,140.047,10.021,132.7z
		 M18.684,131.965c2.486,1.769,4.912,3.032,7.262,3.931c2.012,0.767,3.477,1.285,4.65,1.635c-5.874-0.516-11.008-1.93-14.756-3.266
		c-4.333-2.244-6.57-6.326-7.454-8.343C13.58,129.785,17.915,131.647,18.684,131.965z M3.049,112.577
		c4.808,3.912,18.205,16.281,37.054,16.451c1.981,1.734,3.868,2.511,5.608,2.714c-2.92,1.135-13.163,3.858-28.115-5.978
		c0,0,17.258,13.317,30.984,5.834c0.412-0.086,0.813-0.195,1.2-0.324c-0.422,0.141-0.966,1.121-1.201,1.473
		c-0.368,0.551-0.687,1.139-0.951,1.746c-0.247,0.566-0.462,1.146-0.672,1.729c-3.379,0.9-6.715,1.351-9.921,1.476
		c-2.295-0.015-4.894-0.005-10.841-2.503C18.535,131.976,11.299,126.248,3.049,112.577z"/>
	<path d="M89.811,144.53c0.039-1.399-1.385-1.741-3.109-2.016l-0.299-0.051c-1.948-0.326-4.029-0.765-6.045-1.76
		c-5.668-2.799-11.581-8.885-12.016-16.176c-0.134-2.25,0.712-4.041,1.608-5.937c0.129-0.276,0.26-0.555,0.391-0.837
		c0.896-1.955,0.498-4.758-0.91-6.382c-0.656-0.758-2.452-1.429-3.819-1.19c-0.535,0.094-1.228,0.471-1.13,1.101
		c0.247,1.599,2.942,0.776,1.779-0.2c0.602,0.507,0.709,1.204-0.097,1.503c-0.892,0.33-1.74-0.185-2.234-0.944
		c-0.713-1.103,0.532-1.994,1.547-2.184c1.52-0.282,3.609,0.391,4.511,1.432c1.581,1.827,2.03,4.978,1.023,7.174
		c-0.131,0.283-0.264,0.564-0.395,0.844c-0.854,1.807-1.661,3.515-1.538,5.576c0.415,6.959,6.307,12.943,11.605,15.559
		c1.932,0.953,3.949,1.377,5.841,1.695l0.294,0.048c1.417,0.228,3.79,0.606,3.729,2.767c-0.022,0.764-0.382,1.352-0.7,1.871
		c-0.4,0.652-0.718,1.168-0.448,1.955c0.293,0.86,1.101,1.407,1.727,1.714c-0.772,0.138-2.05-0.376-2.424-1.476
		c-0.381-1.115,0.097-1.895,0.518-2.58C89.516,145.553,89.796,145.099,89.811,144.53z"/>
</g>
<g>
	<g>
		<path d="M116.621,82.506h-4.201v-14.72h-5.38v-3.154H122v3.154h-5.38L116.621,82.506L116.621,82.506z"/>
		<path d="M141.284,82.506h-4.188v-7.714h-7.846v7.714h-4.201V64.632h4.201v7.005h7.846v-7.005h4.188V82.506z"/>
		<path d="M157.695,82.506h-11.41V64.632h11.41v3.105h-7.209v3.924h6.708v3.105h-6.708v4.609h7.209V82.506L157.695,82.506z"/>
		<path d="M180.732,77.542c0,1.614-0.646,2.885-1.933,3.814c-1.287,0.929-3.079,1.394-5.373,1.394c-2.114,0-3.984-0.359-5.61-1.076
			v-3.521c1.337,0.538,2.468,0.917,3.395,1.137c0.926,0.22,1.773,0.33,2.541,0.33c0.921,0,1.628-0.159,2.121-0.477
			c0.492-0.318,0.739-0.791,0.739-1.418c0-0.35-0.109-0.662-0.326-0.935c-0.217-0.273-0.535-0.536-0.955-0.789
			s-1.276-0.656-2.568-1.21c-1.211-0.514-2.119-1.006-2.724-1.479s-1.088-1.022-1.45-1.65c-0.362-0.627-0.542-1.361-0.542-2.201
			c0-1.581,0.594-2.824,1.782-3.729c1.188-0.905,2.83-1.357,4.926-1.357c1.03,0,2.012,0.11,2.948,0.33
			c0.936,0.22,1.912,0.53,2.935,0.929l-1.355,2.947c-1.057-0.392-1.931-0.665-2.622-0.819c-0.691-0.155-1.371-0.232-2.04-0.232
			c-0.795,0-1.405,0.167-1.83,0.501s-0.637,0.77-0.637,1.308c0,0.334,0.085,0.625,0.257,0.874c0.171,0.249,0.445,0.489,0.82,0.721
			s1.262,0.65,2.663,1.253c1.852,0.799,3.122,1.6,3.807,2.402C180.389,75.393,180.732,76.377,180.732,77.542z"/>
		<path d="M195.732,82.506h-11.41V64.632h11.41v3.105h-7.209v3.924h6.707v3.105h-6.707v4.609h7.209V82.506L195.732,82.506z"/>
		<path d="M211.168,64.632h4.242l-6.735,17.874h-4.579l-6.723-17.874h4.24l3.728,10.636c0.208,0.628,0.423,1.359,0.646,2.195
			c0.221,0.835,0.357,1.416,0.412,1.742c0.1-0.75,0.438-2.062,1.018-3.937L211.168,64.632z"/>
		<path d="M229.312,82.506h-11.41V64.632h11.41v3.105h-7.209v3.924h6.707v3.105h-6.707v4.609h7.209V82.506z"/>
		<path d="M251.021,82.506h-5.338l-8.619-13.521h-0.123c0.172,2.388,0.259,4.091,0.259,5.11v8.411h-3.755V64.632h5.3l8.604,13.387
			h0.096c-0.137-2.323-0.203-3.965-0.203-4.927v-8.46h3.779V82.506L251.021,82.506z"/>
		<path d="M94.762,100.253c0,1.923-0.667,3.395-1.999,4.413c-1.333,1.019-3.228,1.528-5.685,1.528h-1.802v6.356h-4.201V94.678h6.328
			c2.403,0,4.23,0.467,5.481,1.4C94.137,97.011,94.762,98.403,94.762,100.253z M85.276,103.089h1.382c1.292,0,2.258-0.23,2.9-0.689
			c0.641-0.46,0.962-1.131,0.962-2.011c0-0.888-0.269-1.544-0.806-1.968s-1.38-0.636-2.527-0.636h-1.911V103.089z"/>
		<path d="M102.703,105.692v6.858h-4.201V94.678h5.772c2.692,0,4.684,0.442,5.976,1.327c1.292,0.885,1.938,2.227,1.938,4.028
			c0,1.051-0.321,1.987-0.962,2.806c-0.642,0.819-1.55,1.461-2.724,1.926c2.981,4.019,4.924,6.614,5.827,7.789h-4.662l-4.729-6.859
			h-2.235V105.692z M102.703,102.612h1.355c1.328,0,2.308-0.2,2.941-0.599c0.632-0.399,0.948-1.027,0.948-1.883
			c0-0.848-0.323-1.451-0.969-1.809c-0.646-0.359-1.646-0.538-3.001-0.538h-1.274V102.612z"/>
		<path d="M116.824,112.552V94.678h4.201v17.874H116.824z"/>
		<path d="M143.587,112.552h-5.339L129.63,99.03h-0.122c0.171,2.388,0.257,4.091,0.257,5.11v8.411h-3.753V94.678h5.298l8.605,13.387
			h0.095c-0.135-2.323-0.203-3.965-0.203-4.928v-8.459h3.781L143.587,112.552L143.587,112.552z"/>
		<path d="M156.99,97.575c-1.581,0-2.805,0.536-3.672,1.608c-0.867,1.072-1.301,2.565-1.301,4.48c0,3.986,1.658,5.979,4.973,5.979
			c1.391,0,3.076-0.312,5.055-0.94v3.179c-1.626,0.611-3.442,0.917-5.448,0.917c-2.882,0-5.086-0.789-6.613-2.366
			c-1.527-1.576-2.29-3.841-2.29-6.791c0-1.858,0.375-3.487,1.125-4.885c0.75-1.397,1.827-2.469,3.232-3.215
			c1.405-0.746,3.051-1.119,4.939-1.119c1.924,0,3.857,0.42,5.8,1.259l-1.355,3.081c-0.741-0.318-1.486-0.595-2.236-0.832
			C158.449,97.693,157.712,97.575,156.99,97.575z"/>
		<path d="M166.259,112.552V94.678h4.201v17.874H166.259z"/>
		<path d="M189.134,100.253c0,1.923-0.667,3.395-1.999,4.413s-3.228,1.528-5.685,1.528h-1.803v6.356h-4.201V94.678h6.33
			c2.401,0,4.229,0.467,5.48,1.4C188.508,97.011,189.134,98.403,189.134,100.253z M179.647,103.089h1.382
			c1.291,0,2.259-0.23,2.9-0.689c0.641-0.46,0.961-1.131,0.961-2.011c0-0.888-0.269-1.544-0.806-1.968
			c-0.538-0.424-1.381-0.636-2.526-0.636h-1.912V103.089L179.647,103.089z"/>
		<path d="M192.873,112.552V94.678h4.201v14.744h8.035v3.13H192.873z"/>
		<path d="M219.962,112.552h-11.41V94.678h11.41v3.105h-7.209v3.924h6.708v3.104h-6.708v4.609h7.209V112.552L219.962,112.552z"/>
		<path d="M235.791,107.588c0,1.614-0.645,2.886-1.932,3.813c-1.287,0.93-3.078,1.395-5.373,1.395c-2.113,0-3.983-0.359-5.61-1.076
			v-3.521c1.337,0.538,2.47,0.917,3.396,1.137c0.927,0.22,1.772,0.33,2.541,0.33c0.922,0,1.629-0.159,2.121-0.478
			c0.491-0.317,0.737-0.791,0.737-1.418c0-0.35-0.108-0.662-0.325-0.935s-0.535-0.536-0.955-0.789s-1.275-0.655-2.567-1.21
			c-1.21-0.514-2.118-1.006-2.724-1.479c-0.605-0.474-1.09-1.022-1.451-1.65c-0.36-0.627-0.541-1.361-0.541-2.201
			c0-1.581,0.594-2.824,1.781-3.729c1.188-0.905,2.83-1.357,4.926-1.357c1.031,0,2.014,0.11,2.947,0.33
			c0.937,0.22,1.913,0.53,2.936,0.929l-1.355,2.947c-1.057-0.392-1.931-0.665-2.621-0.819c-0.691-0.154-1.371-0.232-2.041-0.232
			c-0.795,0-1.404,0.167-1.828,0.501c-0.426,0.334-0.638,0.77-0.638,1.308c0,0.334,0.086,0.625,0.259,0.874
			c0.17,0.249,0.443,0.489,0.818,0.721s1.264,0.65,2.663,1.253c1.853,0.799,3.121,1.6,3.808,2.401
			C235.449,105.437,235.791,106.423,235.791,107.588z"/>
		<path d="M264.573,103.59c0,2.958-0.812,5.231-2.438,6.822c-1.627,1.589-3.957,2.384-6.992,2.384s-5.367-0.795-6.992-2.384
			c-1.627-1.589-2.439-3.871-2.439-6.847c0-2.975,0.814-5.247,2.446-6.815c1.631-1.569,3.968-2.354,7.013-2.354
			s5.373,0.791,6.984,2.372C263.768,98.35,264.573,100.624,264.573,103.59z M250.113,103.59c0,1.997,0.421,3.501,1.262,4.511
			c0.84,1.012,2.096,1.517,3.768,1.517c3.352,0,5.027-2.009,5.027-6.027c0-4.026-1.667-6.04-5.001-6.04
			c-1.671,0-2.933,0.507-3.78,1.522C250.539,100.088,250.113,101.594,250.113,103.59z"/>
		<path d="M272.812,112.552h-4.133V94.678h11.355v3.105h-7.223v4.608h6.721v3.094h-6.721V112.552L272.812,112.552z"/>
	</g>
	<g>
		<path fill="#DE4F4F" d="M201.154,137.035c1.281,0.771,3.433,2.394,4.369,4.171C203.652,140.229,202.865,138.173,201.154,137.035z"
			/>
		<path fill="#DE4F4F" d="M214.859,124.321c1.302,0.754,3.445,2.381,4.369,4.172C217.378,127.498,216.576,125.455,214.859,124.321z"
			/>
		<path fill="#DE4F4F" d="M207.907,120.747c2.459,2.273,6.511,5.945,9.731,8.939c1.035,0.961,2.707,1.887,2.584,3.375
			c-1.521,0.09-2.449-1.596-3.377-2.582C213.971,127.413,210.883,123.875,207.907,120.747z"/>
		<path fill="#DE4F4F" d="M194.003,116.576c6.354,6.05,14.608,13.567,21.651,20.459c0.867,0.85,2.822,1.655,2.184,3.376
			c-1.701,0.654-2.748-1.305-3.574-2.186C207.665,131.19,200.682,123.733,194.003,116.576z"/>
		<path fill="#DE4F4F" d="M209.1,142.397c-3.488-3.859-7.132-7.567-10.526-11.521c1.668,1.703,3.671,3.244,5.562,4.966
			c1.771,1.613,4.092,3.315,5.363,4.966c0.32,0.42,0.822,0.789,0.398,1.59"/>
		<path fill="#DE4F4F" d="M209.896,142.397c-0.267,0-0.533,0-0.797,0"/>
		<path fill="#DE4F4F" d="M212.872,142.397c-5.308-5.949-11.453-12.116-16.287-17.877c5.948,5.506,11.89,11.021,17.876,16.485
			c0.118,0.714-0.229,0.961-0.396,1.392"/>
		<path fill="#DE4F4F" d="M214.064,142.397c-0.396,0-0.795,0-1.192,0"/>
		<path d="M239.488,141.802c0,0.133,0,0.264,0,0.397"/>
		<path d="M193.605,124.72c0,1.125,0,2.25,0,3.377c-3.045,0-6.092,0-9.138,0c-0.461,0.797-0.069,2.446-0.198,3.574
			c2.78,0,5.562,0,8.342,0c0,1.126,0,2.251,0,3.377c-2.713,0-5.428,0-8.144,0c-0.424,0.898-0.093,2.555-0.198,3.773
			c3.179,0,6.356,0,9.535,0c0,1.127,0,2.25,0,3.377c-4.437,0-8.873,0-13.309,0c0-5.826,0-11.654,0-17.479
			C184.867,124.72,189.234,124.72,193.605,124.72z"/>
		<path d="M175.53,124.72c0,1.191,0,2.383,0,3.574c-1.722,0-3.443,0-5.165,0c-0.463,4.237-0.065,9.336-0.199,13.905
			c-1.256,0-2.516,0-3.774,0c0-4.634,0-9.269,0-13.905c-1.788,0-3.575,0-5.363,0c0-1.191,0-2.383,0-3.574
			C165.864,124.72,170.697,124.72,175.53,124.72z"/>
		<path d="M156.264,124.72c0,1.125,0,2.25,0,3.377c-3.113,0-6.223,0-9.336,0c-0.46,0.797-0.069,2.446-0.199,3.574
			c2.78,0,5.561,0,8.342,0c0,1.126,0,2.251,0,3.377c-2.716,0-5.428,0-8.144,0c-0.426,0.898-0.093,2.555-0.199,3.773
			c3.179,0,6.356,0,9.535,0c0,1.127,0,2.25,0,3.377c-4.436,0-8.873,0-13.309,0c0-5.826,0-11.654,0-17.479
			C147.391,124.72,151.828,124.72,156.264,124.72z"/>
		<path d="M120.509,124.72c1.456,0,2.915,0,4.371,0c1.235,2.668,3.007,4.807,4.37,7.35c1.582-2.392,3.106-4.838,4.568-7.35
			c1.457,0,2.915,0,4.37,0c0,5.825,0,11.653,0,17.479c-1.325,0-2.647,0-3.973,0c0-3.642,0-7.284,0-10.925
			c-1.815,1.428-3.001,5.207-5.164,6.951c-1.469-2.502-3.029-4.914-4.767-7.149c0,3.709,0,7.415,0,11.124c-1.258,0-2.518,0-3.775,0
			C120.509,136.373,120.509,130.545,120.509,124.72z"/>
		<path fill="#DE4F4F" d="M201.948,119.158c4.509,4.344,9.384,8.51,14.103,12.911c1.363,1.271,3.79,2.687,3.575,4.967
			c-2.013,0.137-3.681-2.396-4.965-3.775C210.473,128.769,206.088,123.83,201.948,119.158z"/>
		<path d="M235.518,136.241c1.297-1.262,2.834-1.723,3.377-3.376c2.701-8.25-6.479-8.884-14.303-8.146
			c-0.461,5.362-0.064,11.586-0.197,17.281c0.93,0.46,2.713,0.068,3.973,0.198v-5.562h2.779c1.642,1.537,2.598,3.76,3.976,5.562
			h4.368v-0.397C238.029,140.083,236.945,137.99,235.518,136.241z M228.366,133.26v-5.163
			C236.909,126.026,237.468,135.171,228.366,133.26z"/>
	</g>
</g>
</svg>
